<svg id="Layer_1" data-name="Layer 1" xmlns="http://www.w3.org/2000/svg" viewBox="0 0 348.8 350.57"><defs><style>.cls-1{fill:#faa959;stroke-width:1.68px;}.cls-1,.cls-2,.cls-3,.cls-4,.cls-6{stroke:#231f20;}.cls-1,.cls-6{stroke-miterlimit:10;}.cls-2,.cls-3,.cls-4{fill:none;stroke-linecap:round;}.cls-2{stroke-width:6.21px;}.cls-3,.cls-4{stroke-linejoin:round;}.cls-3{stroke-width:6.3px;}.cls-4{stroke-width:5.84px;}.cls-5{fill:#231f20;}.cls-6{fill:#fbb040;stroke-width:16.76px;}</style></defs><title>Artboard 3</title><path class="cls-1" d="M210.9,196.5c-.2,20.7-16.8,37.2-37.1,37s-36.5-17.1-36.3-37.8,16.8-37.2,37.1-37,36.5,17.1,36.3,37.8"/><path class="cls-2" d="M158.4,188.5c8.3,4,14.9,10.1,27.8-1.3"/><path class="cls-3" d="M185,230.8c7.1-3.3,22.7-13.8,22.8-35.2s-16.9-37.7-34.7-37.2c-17.5.5-36.8,12.1-36.9,37.1s20.2,36.9,52.1,45.4c19.1,5.2-46.1,4.6-38.4,7,9.5,3,53.3,5.9,40.1,9.3-12.7,3.3-33,1.6-40.3,5.7-6.5,3.6,71.2,3.2,31.6,11.2"/><line class="cls-4" x1="226" y1="163.2" x2="213.6" y2="171"/><line class="cls-4" x1="117" y1="164.5" x2="129.1" y2="172.9"/><line class="cls-4" x1="142.3" y1="139.7" x2="149.5" y2="152.6"/><line class="cls-4" x1="202.8" y1="140.2" x2="194.7" y2="152.5"/><polyline class="cls-5" points="185.5 234.1 187.2 252.4 187.2 290.5 159.4 290.5 159.4 252.4 159.4 232.3"/><path class="cls-6" d="M168,13.1l-1.2.2h-3.7l-1.2.2h-1.2l-1.2.2h-1.2l-1.2.2-1.5.2h-1.4l-1.2.2-1.2.2-1.4.2L152.9,32l-1.5.2-1.2.2-1.2.2-1.2.2-1,.2-1.2.2-1.2.2-1,.2-1.2.2-1,.4-1.2.2-1,.2-1.2.2-1,.2-1,.4-1.6.4-1,.4-1,.2-1.2.4-1,.2-1,.4-1.3.2-1,.4-1,.4-1.3.4-1,.4-1.3.4-1,.4-1.2.4-1.2.6-1.2.4-1,.6-7-16.3-1.2.6-1.2.6-1.2.4-1.2.6-1.5.9-1.2.6-1.2.6-1.2.6-1.2.6-1.2.6-1,.6-1.2.8-1.2.6-1.2.6-1.1.6-1.2.9-1.2.6-1,.8-1.2.6-1.2.8-1,.9-1.2.6-1.2.8-1.1.9-1.6.9-1,.8-1.2.8-1,.9-1.2,1-1.2.8-1,1-1.2.8L82.7,62.3l-1.5.7-.8.6-.6.6-.9.8-.8.6-.8.6-.9.9-.6.6-.8.8-.8.7-.9.8-.8.6-.6.8-.7.9-.9.9-.8.6-.9.8-.6.8-.8.8-.8,1-.9.9-.8.8L63.9,80l-.6.8-.8,1-.8.8-.8,1-.9,1-.8,1-.6,1-.9,1-.8,1L43.1,78.4l-.6,1-.6.8-.8,1.1-.6,1-.6.8-.7,1-.6,1-.9,1-.6,1-.6,1-.6,1-.6,1-.6,1-.6,1-.6,1.3-.6,1-.7,1.3-.6,1L31,97.9l-.6,1-.6,1.2-.6,1.2-.6,1.2-.4,1.2-.6,1.2-.6,1.2-.6,1.2-.6,1.2-.4,1.5-.6,1.2-.6,1.4-.6,1.4,15.9,6.2-.4,1-.4,1-.4,1-.4,1-.4,1-.2,1-.4,1-.4,1-.4,1-.2,1.2-.4,1-.2,1-.4,1.2-.2,1-.4,1-.2,1.2-.2,1-.2,2-.4,1-.2,1.2-.2,1.2-.2,1.2-.2,1.2-.4,1.2-.2,1.2-.2,1.2-.2,1.2-.2,1.2-.2,1.2-.2,1.5-.2,1.2v1.4L14.4,155l-.2,1.2v1.2l-.2,1.2v2.3l-.2,1.2v22.8l.2,1.2v2.3l.2,1.2v1.2l.2,1.2,16.3-1.9v1.4l.2,1.2.2,1.5.2,1.2.2,1.2.2,1.2.2,1.2.2,1.2.4,1.2.2,1.2.2,1.2.2,1.2.2,1.2.4,1,.2,1.3.2,1,.2,1.2.4,1,.2,1,.4,1.2.2,1,.4,1,.2,1.2.4,1,.4,1,.4,1,.2,1,.4,1,.4,1,.4,1,.4,1,.4,1-16.3,8.5.6,1.4.6,1.4.6,1.2.4,1.5.6,1.2.6,1.2.6,1.2.6,1.2.4,1.2.6,1.2.6,1.2.6,1.2.6,1,.6,1.2.6,1,.6,1.3.6,1,.6,1.3.6,1,.6,1,.6,1,.6,1,.6,1,.6,1,.9,1,.6,1,.7,1,.6.8.6,1,.8,1,.6.8.6,1L56.4,260l.8,1,.9,1,.6,1,.8,1,.9,1,.8,1,.8.8.8,1,.6.8.8,1,.8.8.9.9.8,1,.9.9.6.8.9.8.8.6.9.9.8.8.6.8.8.6.9.8.8.6.8.8.6.6.9.9.8.6.8.6.9.8.6.6.8.6.9.6L70.9,299.9l1.2.8,1,1,1.2.8,1.2,1,1,.9,1.2.8,1,.8,1.2.8,1.1.9,1.2.8,1.2.6,1,.9,1.2.8,1.2.6,1,.8,1.2.6,1.2.9,1.1.6,1.2.6,1.2.6,1.2.8,1,.6,1.2.6,1.2.6,1.2.6,1.2.6,1.2.6,1.2.6,1.2.6,1.2.4,1.2.6,1.2.6,7-16.3,1,.6,1.2.4,1.2.6,1.2.4,1,.4,1.3.4,1,.4,1.3.4,1,.4,1,.4,1.3.2,1,.4,1,.2,1.2.4,1,.2,1,.4,1.2.2,1,.4,1,.2,1.2.2,1,.2,1.2.2,1,.4,1.2.2,1,.2,1.2.2,1.2.2,1,.2,1.2.2,1.2.2,1.2.2,1.5.2-2.5,17.3,1.4.2,1.2.2,1.2.2h1.2l1.5.2,1.2.2h1.2l1.2.2h1.2l1.2.2h3.7l1.2.2h9.7l1-.2h3l1.2-.2h1.2l1.2-.2h1.2l1.2-.2,1.2-.2h1.2l-1.9-18,1.2-.2,1.5-.2,1.2-.2h1.3l1.4-.2,1.2-.4,1.4-.2,1.2-.2,1.5-.2,1.2-.2,1.2-.4,1.4-.2,1.2-.4,1.2-.2,1.2-.4,1.5-.4,1.2-.2,1.2-.4,1.2-.4,1.2-.4,1.2-.4,1.2-.4,1.3-.4,1.2-.4,1.2-.4,1.2-.6,1.2-.4,1-.4,1.2-.6,1.2-.4,1-.6,1.2-.4,7,16.5,1.2-.4,1.2-.6,1-.6,1.2-.4,1-.6,1.2-.6,1-.4,1-.6,1.2-.6,1-.6,1-.4,1-.6,1.1-.6,1-.6,1.2-.6,1-.6.8-.6,1-.6,1-.6,1-.7,1-.6,1-.6.8-.7,1-.6.8-.8,1-.6.8-.6,1-.6.9-.8,1-.6.9-.6.8-.8-8-13.8,1-.6.8-.9,1-.8,1-.6,1-.8.9-.9,1-1,1-.9,1-.8.8-.8,1-1,1-.9,1-1,.9-1,1-.8,1-1,.8-1,1-1,.8-.8.8-1,1-1,.8-1,.8-1,.8-.8.8-1,.9-1,.6-1,.8-.8.7-1,.8-.9.6-1,.6-.8,15.3,10.4.8-1,.6-1,.9-.9.6-1,.7-1,.8-1,.6-1,.6-1,.8-1.2.6-1,.6-1,.6-1.2.6-1,.6-1,.6-1.2.6-1,.7-1.2.6-1,.7-1.2.6-1,.6-1.2.4-1,.6-1.2.4-1,.6-1.2.4-1,.6-1,.4-1.2.4-1,.4-1,.5-1,.4-1-16.7-6.8.6-1.3.4-1.2.4-1.2.4-1.2.4-1.2.4-1.4.4-1.2.4-1.2.4-1.2.4-1.2.4-1.2.2-1.5.4-1.2.4-1.2.2-1.2.4-1.2.2-1.2.2-1.2.4-1.2.2-1.2.2-1.2.2-1.2.2-1.2.1-1.2.2-1.2v-2.4l.2-1,.2-1.2v-1.8l.2-1.2v-2.3l17.6,1.7.2-1.2v-1l.2-1.2v-1.3l.2-1.2V164.6l-.2-1.2v-1.2l-.2-1.2v-1l-.2-1.3-17.7,1.7v-2.3l-.2-1.2v-1.2l-.2-1.2-.2-1v-1.3l-.2-1.2-.1-1.2-.2-1.2-.2-1.2-.2-1.2-.2-1.2-.4-1.2-.2-1.2-.2-1.2-.4-1.2-.2-1.2-.4-1.2-.4-1.2-.2-1.5-.4-1.2-.4-1.2-.4-1.2-.4-1.2-.4-1.2-.4-1.4-.4-1.2-.4-1.2-.4-1.2-.4-1.2-.6-1.3,16.7-6.8-.4-1-.5-1-.4-1-.4-1-.4-1.2-.6-1-.4-1-.6-1.2-.4-1-.6-1.2-.4-1-.6-1.2-.6-1-.7-1.2-.6-1-.7-1.2-.6-1-.6-1.2-.6-1-.6-1-.6-1.2-.6-1-.6-1-.8-1.2-.6-1-.6-1-.8-1-.7-1-.6-1-.9-.9-.6-1-.8-1L285.6,91.3l-.6-.8-.6-1-.8-.9-.7-1-.8-.8-.6-1-.9-1-.8-1L279,83l-.8-1.1-.8-1-1-1-.8-1-.8-.8-1-1.1-.8-1-1-1-1-.8-.9-1-1-1-1-.9-1-1-.8-.8-1-.8-1-.9-1-1-.9-.9-1-.8-1-.6-1-.8-.8-.9-1-.6,10.6-15.9-.8-.8-.9-.6-1-.6-.9-.8-1-.6-.8-.6-1-.6-.8-.8-1-.6-.8-.7-1-.6-1-.6-1-.7-1-.6-1-.6-.8-.6-1-.6-1.2-.6-1-.6-1.1-.6-1-.6-1-.4-1-.6-1.2-.6-1-.6-1-.4-1.2-.6-1-.6-1.2-.4-1-.6-1.2-.6-1.2-.4-7,16.5-1.9-.8-1-.6-1.2-.4-1.2-.6-1-.4-1.2-.4-1.2-.6-1.2-.4L218,39l-1.3-.4-1.2-.4-1.2-.4-1.2-.4-1.2-.4-1.2-.4-1.2-.2L208,36l-1.2-.4-1.2-.2-1.2-.4-1.4-.2-1.2-.4-1.2-.2-1.5-.2-1.2-.2-1.4-.2-1.2-.4-1.4-.2h-1.2l-1.2-.2-1.5-.2-1.2-.2,1.9-18h-1.4l-1.2-.2-1.2-.2h-1.2l-1.2-.2h-1.2l-1.2-.2h-2.5l-1-.2L168,13.1Zm3.3,42.5,6.6.2,6.3.4,6.4,1,6.4,1.2,6.4,1.7,6.2,2.1,6.2,2.2,6.2,2.7,5.8,3.1,6,3.5,5.6,3.7,5.4,4.3,5.4,4.3,5.1,5,4.8,5.4,4.8,5.6h-.4a121.36,121.36,0,0,1,11.4,17.7v-.2l.7,1.5a116,116,0,0,1,12.5,51h0c0,.9.1,1.9.1,2.8a26.2,26.2,0,0,1-.1,2.8h0a118.79,118.79,0,0,1-12.5,51l-.7,1.5v-.2a111,111,0,0,1-11.4,17.7h.4l-4.8,5.6-4.8,5.4-5.1,4.9-5.4,4.3-5.4,4.3-5.6,3.7-6,3.5-5.8,3.1-6.2,2.7-6.2,2.2-6.2,2L197,291l-6.4,1.2-6.4,1-6.3.4-6.6.2-6.4-.2-6.6-.4-6.4-1-6.4-1.2-6.4-1.7-6.2-2-6.2-2.2-6.2-2.7-5.8-3.3-6-3.3-5.6-3.9-5.6-4.1L92.3,263l-5.1-4.9-5-5.3-4.5-5.6h.2a124.33,124.33,0,0,1-11.4-18v.3l-.5-1.4a118.31,118.31,0,0,1-12.4-50.5h0c0-.9-.1-1.9-.1-2.8a26.2,26.2,0,0,1,.1-2.8h0a118.2,118.2,0,0,1,12.3-50.5l.5-1.4v.3a109.26,109.26,0,0,1,11.4-18h-.2l4.5-5.6,5-5.3,5.1-4.9,5.2-4.8,5.6-4.1,5.6-3.9,6-3.3,5.8-3.3,6.2-2.7,6.2-2.2,6.2-2.1,6.4-1.7,6.4-1.2,6.4-1,6.6-.4Z"/></svg>