<svg width="1396" height="492" viewBox="0 0 1396 492" fill="none" xmlns="http://www.w3.org/2000/svg">
<g filter="url(#filter0_d)">
<path d="M475.997 185.973L440.257 289.886L192.114 204.538L227.854 100.625L475.997 185.973Z" fill="#FF8603"/>
<path d="M726.105 271.918L690.365 375.831L442.221 290.484L477.961 186.571L726.105 271.918Z" fill="#FF8603"/>
<path d="M429.016 193.055L394.032 181.022C388.282 179.045 382.045 182.09 380.067 187.84C378.089 193.589 381.134 199.827 386.884 201.805L433.991 218.007C439.741 219.985 442.786 226.223 440.809 231.972C438.831 237.722 432.593 240.767 426.843 238.79L379.736 222.587C373.986 220.61 367.749 223.655 365.771 229.405C363.793 235.154 366.838 241.392 372.588 243.37L388.521 248.85C394.271 250.828 397.316 257.066 395.339 262.815C393.361 268.565 387.123 271.61 381.373 269.633L355.049 260.578L347.429 257.958L200.427 207.397L236.167 103.484L383.169 154.045L390.789 156.666L436.164 172.272C441.914 174.25 444.959 180.488 442.981 186.238C441.028 191.918 434.766 195.032 429.016 193.055Z" fill="#ED5F18"/>
<path d="M679.123 279.001L644.139 266.969C638.389 264.991 632.152 268.036 630.174 273.786C628.196 279.536 631.241 285.774 636.991 287.751L684.098 303.953C689.848 305.931 692.893 312.169 690.915 317.919C688.938 323.668 682.7 326.714 676.95 324.736L629.843 308.534C624.093 306.556 617.855 309.601 615.878 315.351C613.9 321.101 616.945 327.339 622.695 329.316L638.628 334.796C644.378 336.774 647.423 343.012 645.446 348.762C643.468 354.512 637.23 357.557 631.48 355.579L605.156 346.525L597.536 343.904L450.534 293.343L486.274 189.431L633.276 239.991L640.896 242.612L686.271 258.219C692.021 260.196 695.066 266.434 693.088 272.184C691.135 277.864 684.873 280.979 679.123 279.001Z" fill="#ED5F18"/>
<path d="M420.704 190.196L385.72 178.164C379.97 176.186 373.732 179.231 371.754 184.981C369.777 190.731 372.822 196.969 378.572 198.946L425.679 215.149C431.429 217.126 434.474 223.364 432.496 229.114C430.518 234.864 424.281 237.909 418.531 235.931L371.424 219.729C365.674 217.751 359.436 220.796 357.458 226.546C355.481 232.296 358.526 238.534 364.276 240.512L380.209 245.992C385.959 247.969 389.004 254.207 387.026 259.957C385.049 265.707 378.811 268.752 373.061 266.774L346.736 257.72L339.116 255.099L192.114 204.539L227.854 100.626L374.856 151.186L382.477 153.807L427.852 169.414C433.602 171.392 436.647 177.629 434.669 183.379C432.715 189.06 426.454 192.174 420.704 190.196Z" fill="#EF2531"/>
<path d="M670.811 276.141L635.827 264.108C630.077 262.131 623.839 265.176 621.861 270.926C619.884 276.675 622.929 282.913 628.679 284.891L675.786 301.093C681.536 303.071 684.581 309.308 682.603 315.058C680.625 320.808 674.388 323.853 668.638 321.876L621.531 305.673C615.781 303.696 609.543 306.741 607.565 312.491C605.588 318.24 608.633 324.478 614.383 326.456L630.316 331.936C636.066 333.914 639.111 340.151 637.133 345.901C635.155 351.651 628.918 354.696 623.168 352.719L596.843 343.664L589.223 341.043L442.221 290.483L477.961 186.57L624.963 237.131L632.583 239.752L677.959 255.358C683.709 257.336 686.754 263.574 684.776 269.324C682.822 275.004 676.56 278.118 670.811 276.141Z" fill="#EF2531"/>
<path d="M354.338 167.37L305.083 150.429C299.334 148.452 293.096 151.497 291.118 157.246C289.141 162.996 292.186 169.234 297.935 171.212L323.429 179.98C329.179 181.958 332.224 188.195 330.246 193.945C328.268 199.695 322.03 202.74 316.281 200.763L290.787 191.994C285.038 190.017 278.8 193.062 276.822 198.812C274.844 204.561 277.89 210.799 283.639 212.777L318.623 224.809C324.373 226.787 327.418 233.025 325.441 238.775C323.463 244.524 317.225 247.57 311.475 245.592L266.1 229.985L258.48 227.364L197.864 206.516L233.604 102.603L294.22 123.452L301.84 126.073L361.486 146.587C367.236 148.565 370.281 154.803 368.303 160.553C366.35 166.233 360.088 169.348 354.338 167.37Z" fill="#CC253D"/>
<path d="M604.445 253.315L555.19 236.375C549.441 234.397 543.203 237.442 541.225 243.192C539.247 248.942 542.293 255.179 548.042 257.157L573.536 265.925C579.285 267.903 582.33 274.141 580.353 279.891C578.375 285.64 572.137 288.685 566.388 286.708L540.894 277.94C535.144 275.962 528.907 279.007 526.929 284.757C524.951 290.507 527.996 296.745 533.746 298.722L568.73 310.755C574.48 312.732 577.525 318.97 575.547 324.72C573.57 330.47 567.332 333.515 561.582 331.537L516.207 315.931L508.587 313.31L447.971 292.461L483.711 188.549L544.327 209.397L551.947 212.018L611.593 232.533C617.343 234.51 620.388 240.748 618.41 246.498C616.457 252.179 610.195 255.293 604.445 253.315Z" fill="#CC253D"/>
<path d="M420.704 190.196L385.72 178.164C379.97 176.186 373.732 179.231 371.754 184.981C369.777 190.731 372.822 196.969 378.572 198.946L425.679 215.149C431.429 217.126 434.474 223.364 432.496 229.114C430.518 234.864 424.281 237.909 418.531 235.931L371.424 219.729C365.674 217.751 359.436 220.796 357.458 226.546C355.481 232.296 358.526 238.534 364.276 240.512L380.209 245.992C385.959 247.969 389.004 254.207 387.026 259.957C385.049 265.707 378.811 268.752 373.061 266.774L346.736 257.72L339.116 255.099L192.114 204.539L227.854 100.626L374.856 151.186L382.477 153.807L427.852 169.414C433.602 171.392 436.647 177.629 434.669 183.379C432.715 189.06 426.454 192.174 420.704 190.196Z" stroke="#3F2522" stroke-width="6" stroke-miterlimit="10" stroke-linecap="round" stroke-linejoin="round"/>
<path d="M670.811 276.141L635.827 264.108C630.077 262.131 623.839 265.176 621.861 270.926C619.884 276.675 622.929 282.913 628.679 284.891L675.786 301.093C681.536 303.071 684.581 309.308 682.603 315.058C680.625 320.808 674.388 323.853 668.638 321.876L621.531 305.673C615.781 303.696 609.543 306.741 607.565 312.491C605.588 318.24 608.633 324.478 614.383 326.456L630.316 331.936C636.066 333.914 639.111 340.151 637.133 345.901C635.155 351.651 628.918 354.696 623.168 352.719L596.843 343.664L589.223 341.043L442.221 290.483L477.961 186.57L624.963 237.131L632.583 239.752L677.959 255.358C683.709 257.336 686.754 263.574 684.776 269.324C682.822 275.004 676.56 278.118 670.811 276.141Z" stroke="#3F2522" stroke-width="6" stroke-miterlimit="10" stroke-linecap="round" stroke-linejoin="round"/>
<path d="M345.332 164.272L296.078 147.332C290.328 145.354 284.09 148.399 282.112 154.149C280.135 159.899 283.18 166.136 288.93 168.114L314.423 176.882C320.173 178.86 323.218 185.098 321.24 190.848C319.262 196.597 313.025 199.642 307.275 197.665L281.782 188.897C276.032 186.919 269.794 189.964 267.816 195.714C265.839 201.464 268.884 207.702 274.633 209.679L309.617 221.712C315.367 223.689 318.412 229.927 316.435 235.677C314.457 241.427 308.219 244.472 302.469 242.494L257.094 226.888L249.474 224.267L188.858 203.418L224.598 99.5056L285.214 120.354L292.834 122.975L352.48 143.49C358.23 145.467 361.275 151.705 359.298 157.455C357.344 163.136 351.082 166.25 345.332 164.272Z" fill="#38BEB3"/>
<path d="M595.439 250.218L546.185 233.277C540.435 231.299 534.197 234.344 532.219 240.094C530.242 245.844 533.287 252.082 539.036 254.059L564.53 262.828C570.28 264.805 573.325 271.043 571.347 276.793C569.369 282.543 563.132 285.588 557.382 283.61L531.888 274.842C526.139 272.864 519.901 275.909 517.923 281.659C515.946 287.409 518.991 293.647 524.74 295.624L559.724 307.657C565.474 309.635 568.519 315.872 566.542 321.622C564.564 327.372 558.326 330.417 552.576 328.44L507.201 312.833L499.581 310.212L438.965 289.364L474.705 185.451L535.321 206.299L542.941 208.92L602.587 229.435C608.337 231.413 611.382 237.651 609.404 243.4C607.451 249.081 601.189 252.195 595.439 250.218Z" fill="#38BEB3"/>
<path opacity="0.14" d="M252.932 109.251L217.191 213.164L192.114 204.539L227.854 100.626L252.932 109.251Z" fill="#026060"/>
<path opacity="0.14" d="M503.039 195.197L467.299 299.109L442.221 290.484L477.961 186.571L503.039 195.197Z" fill="#026060"/>
<path d="M345.332 164.272L296.078 147.332C290.328 145.354 284.09 148.399 282.112 154.149C280.135 159.899 283.18 166.136 288.93 168.114L314.423 176.882C320.173 178.86 323.218 185.098 321.24 190.848C319.262 196.597 313.025 199.642 307.275 197.665L281.782 188.897C276.032 186.919 269.794 189.964 267.816 195.714C265.839 201.464 268.884 207.702 274.633 209.679L309.617 221.712C315.367 223.689 318.412 229.927 316.435 235.677C314.457 241.427 308.219 244.472 302.469 242.494L257.094 226.888L249.474 224.267L188.858 203.418L224.598 99.5056L285.214 120.354L292.834 122.975L352.48 143.49C358.23 145.467 361.275 151.705 359.298 157.455C357.344 163.136 351.082 166.25 345.332 164.272Z" stroke="#3F2522" stroke-width="6" stroke-miterlimit="10" stroke-linecap="round" stroke-linejoin="round"/>
<path d="M595.439 250.218L546.185 233.277C540.435 231.299 534.197 234.344 532.219 240.094C530.242 245.844 533.287 252.082 539.036 254.059L564.53 262.828C570.28 264.805 573.325 271.043 571.347 276.793C569.369 282.543 563.132 285.588 557.382 283.61L531.888 274.842C526.139 272.864 519.901 275.909 517.923 281.659C515.946 287.409 518.991 293.647 524.74 295.624L559.724 307.657C565.474 309.635 568.519 315.872 566.542 321.622C564.564 327.372 558.326 330.417 552.576 328.44L507.201 312.833L499.581 310.212L438.965 289.364L474.705 185.451L535.321 206.299L542.941 208.92L602.587 229.435C608.337 231.413 611.382 237.651 609.404 243.4C607.451 249.081 601.189 252.195 595.439 250.218Z" stroke="#3F2522" stroke-width="6" stroke-miterlimit="10" stroke-linecap="round" stroke-linejoin="round"/>
<path d="M475.997 185.973L440.257 289.886L192.114 204.538L227.854 100.625L475.997 185.973Z" stroke="#3F2522" stroke-width="6" stroke-miterlimit="10" stroke-linecap="round" stroke-linejoin="round"/>
<path d="M724.153 277.592L690.365 375.831L442.221 290.484L477.961 186.571L720.431 269.967C723.565 271.045 725.231 274.459 724.153 277.592Z" stroke="#3F2522" stroke-width="6" stroke-miterlimit="10" stroke-linecap="round" stroke-linejoin="round"/>
<path d="M103.307 117.672L118.34 122.843C128.384 126.298 139.371 120.935 142.825 110.89L161.267 57.2709C164.722 47.226 175.708 41.8631 185.753 45.318L201.479 50.7267C211.524 54.1815 216.886 65.1676 213.432 75.2125L207.785 91.6307" stroke="#3F2522" stroke-width="8" stroke-miterlimit="10" stroke-linecap="round" stroke-linejoin="round"/>
<path d="M178.361 86.8566L144.432 185.504C141.882 192.917 145.86 200.947 153.203 203.473L181.814 213.314C189.226 215.863 197.257 211.885 199.783 204.542L233.688 105.963C236.238 98.551 232.26 90.5204 224.917 87.9948L196.306 78.1543C188.987 75.5594 180.887 79.5134 178.361 86.8566Z" fill="#38BEB3"/>
<path opacity="0.23" d="M152.316 196.815C151.554 199.032 152.736 201.453 154.952 202.215L181.277 211.269C183.494 212.032 185.914 210.85 186.677 208.633C187.439 206.417 186.258 203.996 184.041 203.234L157.716 194.179C155.523 193.348 153.103 194.529 152.316 196.815Z" fill="white"/>
<path opacity="0.05" d="M189.597 96.532L159.218 184.858C158.408 187.213 159.681 189.82 162.036 190.63C164.391 191.44 166.998 190.168 167.808 187.812L198.187 99.4866C198.998 97.1312 197.725 94.5243 195.37 93.7142C193.014 92.9041 190.407 94.1767 189.597 96.532Z" fill="#026060"/>
<path opacity="0.05" d="M202.875 98.6967L171.043 191.248C170.638 192.426 171.274 193.729 172.452 194.134C173.629 194.539 174.933 193.903 175.338 192.726L207.194 100.105C207.599 98.927 206.963 97.6236 205.785 97.2185C204.514 96.8589 203.28 97.519 202.875 98.6967Z" fill="#026060"/>
<path opacity="0.14" d="M233.781 105.917L233.519 106.679C232.028 105.159 230.209 103.914 227.992 103.151L196.057 92.1671C190.515 90.261 184.394 93.1913 182.464 98.8026L153.061 184.288C151.656 188.375 147.187 190.557 143.099 189.151L178.268 86.901C180.817 79.4885 188.893 75.6038 196.236 78.1294L224.847 87.9699C232.422 90.4977 236.307 98.5738 233.781 105.917Z" fill="#026060"/>
<path opacity="0.15" d="M226.653 97.8111L189.245 206.573C188.554 208.582 189.599 210.723 191.608 211.414C193.617 212.105 195.758 211.06 196.449 209.051L233.857 100.289C234.548 98.2801 233.503 96.1388 231.494 95.4478C229.485 94.7568 227.344 95.8021 226.653 97.8111Z" fill="#92D3D1"/>
<path d="M178.361 86.8566L144.432 185.504C141.882 192.917 145.86 200.947 153.203 203.473L181.814 213.314C189.226 215.863 197.257 211.885 199.783 204.542L233.688 105.963C236.238 98.551 232.26 90.5204 224.917 87.9948L196.306 78.1543C188.987 75.5594 180.887 79.5134 178.361 86.8566Z" stroke="#3F2522" stroke-width="6" stroke-miterlimit="10" stroke-linecap="round" stroke-linejoin="round"/>
<path d="M23.0166 90.0574C20.2289 98.1626 24.5226 107.077 32.6971 109.888L80.0813 126.186C88.1865 128.973 97.1005 124.68 99.912 116.505C102.7 108.4 98.406 99.486 90.2315 96.6744L42.8473 80.3769C34.649 77.6346 25.8043 81.9522 23.0166 90.0574Z" fill="#AB5647"/>
<path opacity="0.21" d="M28.4526 103.084C27.7378 105.162 28.8286 107.396 30.9069 108.111L84.0409 126.386C86.1191 127.101 88.3536 126.01 89.0684 123.932C89.7832 121.854 88.6924 119.619 86.6142 118.904L33.4802 100.629C31.4019 99.9146 29.1674 101.005 28.4526 103.084Z" fill="#FFBBA6"/>
<path d="M100.644 112.574C98.7961 109.614 95.9928 107.178 92.4598 105.963L45.0756 89.6652C36.9704 86.8774 28.0565 91.1712 25.2449 99.3457C24.7922 100.662 24.5711 101.98 24.4432 103.253C22.1165 99.4317 21.444 94.6297 23.0166 90.0575C25.8043 81.9523 34.6728 77.5655 42.8473 80.377L90.2315 96.6746C96.9966 99.0789 101.15 105.698 100.644 112.574Z" fill="#9B4F45"/>
<path d="M23.0166 90.0574C20.2289 98.1626 24.5226 107.077 32.6971 109.888L80.0813 126.186C88.1865 128.973 97.1005 124.68 99.912 116.505C102.7 108.4 98.406 99.486 90.2315 96.6744L42.8473 80.3769C34.649 77.6346 25.8043 81.9522 23.0166 90.0574Z" stroke="#3F2522" stroke-width="6" stroke-miterlimit="10" stroke-linecap="round" stroke-linejoin="round"/>
<path d="M99.2622 106.907L93.4723 123.741C92.2809 127.205 94.1443 131.022 97.6081 132.214C101.072 133.405 104.889 131.542 106.08 128.078L111.87 111.244C113.062 107.78 111.198 103.963 107.734 102.772C104.271 101.58 100.454 103.444 99.2622 106.907Z" fill="#9B4F45"/>
<path opacity="0.21" d="M94.8593 126.465C95.6752 124.093 98.2595 122.832 100.632 123.647C103.004 124.463 104.265 127.048 103.449 129.42C102.634 131.792 100.049 133.053 97.6771 132.238C95.305 131.422 94.0434 128.837 94.8593 126.465Z" fill="#FFBBA6"/>
<path d="M111.939 111.268L108.532 121.175C109.723 117.711 107.86 113.894 104.396 112.703C100.932 111.511 97.115 113.375 95.9237 116.838L99.3309 106.932C100.522 103.468 104.339 101.605 107.803 102.796C111.267 103.988 113.13 107.805 111.939 111.268Z" fill="#8C443E"/>
<path d="M99.2622 106.907L93.4723 123.741C92.2809 127.205 94.1443 131.022 97.6081 132.214C101.072 133.405 104.889 131.542 106.08 128.078L111.87 111.244C113.062 107.78 111.198 103.963 107.734 102.772C104.271 101.58 100.454 103.444 99.2622 106.907Z" stroke="#3F2522" stroke-width="6" stroke-miterlimit="10" stroke-linecap="round" stroke-linejoin="round"/>
<path d="M157.151 204.83L156.866 205.662C155.96 208.294 157.393 211.111 159.956 211.993L171.317 215.9C173.95 216.806 176.766 215.373 177.648 212.81L177.934 211.978L157.151 204.83Z" stroke="#3F2522" stroke-width="6" stroke-miterlimit="10" stroke-linecap="round" stroke-linejoin="round"/>
<path d="M157.151 204.83L156.866 205.662C155.96 208.294 157.393 211.111 159.956 211.993L171.317 215.9C173.95 216.806 176.766 215.373 177.648 212.81L177.934 211.978L157.151 204.83Z" fill="#3F2522"/>
<path d="M200.278 79.4428L200.564 78.6115C201.469 75.979 204.332 74.6394 206.895 75.521L218.256 79.4286C220.888 80.334 222.228 83.1963 221.346 85.7595L221.061 86.5908L200.278 79.4428Z" stroke="#3F2522" stroke-width="6" stroke-miterlimit="10" stroke-linecap="round" stroke-linejoin="round"/>
<path d="M200.278 79.4428L200.564 78.6115C201.469 75.979 204.332 74.6394 206.895 75.521L218.256 79.4286C220.888 80.334 222.228 83.1963 221.346 85.7595L221.061 86.5908L200.278 79.4428Z" fill="#3F2522"/>
<path d="M337.083 196.142L345.593 207.436C350.054 213.386 359.492 212.526 362.407 205.627C362.478 205.419 362.574 205.142 362.645 204.934C362.717 204.726 362.812 204.449 362.883 204.241C364.805 197.078 357.963 190.618 350.74 192.473L337.083 196.142Z" fill="#CC253D"/>
<path d="M587.19 282.087L595.7 293.381C600.161 299.331 609.599 298.471 612.514 291.572C612.585 291.364 612.681 291.087 612.752 290.879C612.824 290.672 612.919 290.394 612.99 290.187C614.912 283.023 608.07 276.564 600.847 278.418L587.19 282.087Z" fill="#CC253D"/>
<path d="M332.233 194.473L340.744 205.767C345.205 211.717 354.642 210.857 357.557 203.958C357.629 203.75 357.724 203.473 357.796 203.265C357.867 203.057 357.962 202.78 358.034 202.572C359.955 195.409 353.113 188.95 345.89 190.804L332.233 194.473Z" fill="#38BEB3"/>
<path d="M582.34 280.418L590.851 291.712C595.312 297.663 604.749 296.803 607.664 289.903C607.736 289.695 607.831 289.418 607.903 289.21C607.974 289.003 608.069 288.726 608.141 288.518C610.062 281.354 603.22 274.895 595.997 276.749L582.34 280.418Z" fill="#38BEB3"/>
<path d="M332.233 194.473L340.744 205.767C345.205 211.717 354.642 210.857 357.557 203.958C357.629 203.75 357.724 203.473 357.796 203.265C357.867 203.057 357.962 202.78 358.034 202.572C359.955 195.409 353.113 188.95 345.89 190.804L332.233 194.473Z" stroke="#3F2522" stroke-width="6" stroke-miterlimit="10" stroke-linecap="round" stroke-linejoin="round"/>
<path d="M582.34 280.418L590.851 291.712C595.312 297.663 604.749 296.803 607.664 289.903C607.736 289.695 607.831 289.418 607.903 289.21C607.974 289.003 608.069 288.726 608.141 288.518C610.062 281.354 603.22 274.895 595.997 276.749L582.34 280.418Z" stroke="#3F2522" stroke-width="6" stroke-miterlimit="10" stroke-linecap="round" stroke-linejoin="round"/>
<path opacity="0.4" d="M187.755 195.137L207.698 137.153" stroke="white" stroke-width="6" stroke-miterlimit="10" stroke-linecap="round" stroke-linejoin="round"/>
<path opacity="0.4" d="M211.773 125.308L214.632 116.995" stroke="white" stroke-width="6" stroke-miterlimit="10" stroke-linecap="round" stroke-linejoin="round"/>
<path d="M34.9322 94.156C35.8139 91.5926 38.6066 90.2293 41.17 91.111C43.7334 91.9926 45.0967 94.7854 44.215 97.3488C43.3334 99.9122 40.5406 101.276 37.9772 100.394C35.4138 99.5122 34.0505 96.7194 34.9322 94.156Z" fill="#3E454F"/>
<path d="M34.9322 94.156C35.8139 91.5926 38.6066 90.2293 41.17 91.111C43.7334 91.9926 45.0967 94.7854 44.215 97.3488C43.3334 99.9122 40.5406 101.276 37.9772 100.394C35.4138 99.5122 34.0505 96.7194 34.9322 94.156Z" stroke="#3F2522" stroke-width="6" stroke-miterlimit="10" stroke-linecap="round" stroke-linejoin="round"/>
</g>
<g filter="url(#filter1_d)">
<path d="M1181.62 232.177H1156.44V220.317H1181.62V178.035H1195.49V220.317H1245.06V232.177H1195.49V342.003C1195.49 367.064 1203.8 374.1 1226.24 374.1H1245.06V386.43H1224.16C1195.56 386.43 1181.69 374.77 1181.69 342.07V232.177H1181.62Z" fill="#FEB062"/>
</g>
<g filter="url(#filter2_d)">
<path d="M572.024 216.029C598.484 216.029 622.868 229.43 634.39 248.729V159.943H662.593V386.363H634.39V354.735C624.141 373.43 602.37 388.909 571.622 388.909C526.337 388.909 491.771 353.663 491.771 301.799C491.704 249.6 526.538 216.029 572.024 216.029ZM577.115 240.018C546.367 240.018 520.308 262.331 520.308 301.799C520.308 341.334 546.367 364.451 577.115 364.451C607.863 364.451 634.323 341.535 634.323 302C634.39 263.403 607.93 240.018 577.115 240.018Z" fill="#3F3B3B"/>
</g>
<g filter="url(#filter3_d)">
<path d="M138.001 289.135V386.43H110V173.145H138.001V271.914L226.628 173.145H262.065L164.73 279.754L262.735 386.162H226.226L138.001 289.135Z" fill="#3F3B3B"/>
</g>
<g filter="url(#filter4_d)">
<path d="M363.754 216.029C395.172 216.029 416.743 231.977 426.523 249.399V218.576H454.726V386.162H426.523V355.138C416.274 373.163 394.502 389.111 363.486 389.111C318.604 389.111 283.836 353.864 283.836 302C283.903 249.6 318.47 216.029 363.754 216.029ZM369.315 240.018C338.567 240.018 312.508 262.332 312.508 301.799C312.508 341.334 338.567 364.452 369.315 364.452C400.062 364.452 426.523 341.535 426.523 302C426.59 263.404 400.062 240.018 369.315 240.018Z" fill="#3F3B3B"/>
</g>
<g filter="url(#filter5_d)">
<path d="M706.805 220.317L768.301 371.353L829.797 220.317H844.535L775.335 386.43H760.798L691.599 220.317H706.805Z" fill="#FEB062"/>
</g>
<g filter="url(#filter6_d)">
<path d="M947.497 388.708C900.739 388.708 866.307 356.209 866.307 303.139C866.307 250.27 900.069 218.173 947.497 218.173C997.672 218.173 1025.27 253.62 1025.27 292.083C1025.27 299.52 1025.27 303.139 1024.67 308.633H880.508C881.781 354.735 913.199 376.78 947.564 376.78C980.456 376.78 1004.17 359.358 1009.73 331.751H1024.27C1017.57 364.518 990.236 388.708 947.497 388.708ZM880.441 297.376H1011.34C1013.48 251.275 980.791 229.832 947.028 229.832C913.132 229.631 881.915 251.476 880.441 297.376Z" fill="#FEB062"/>
</g>
<g filter="url(#filter7_d)">
<path d="M1081.01 386.363H1067.14V220.318H1081.01V254.492C1089.31 230.302 1109.81 216.9 1142.7 216.9V231.307H1138.01C1109.41 231.307 1080.81 245.312 1080.81 290.542V386.363H1081.01Z" fill="#FEB062"/>
</g>
<g filter="url(#filter8_d)">
<path d="M1337.31 388.708C1300.8 388.708 1274.94 372.157 1271.72 341.535H1285.79C1287.94 362.575 1305.42 376.781 1337.04 376.781C1363.1 376.781 1378.44 361.503 1378.44 343.411C1378.44 297.511 1275.94 324.113 1275.94 261.192C1275.94 238.075 1298.79 218.106 1331.28 218.106C1366.11 218.106 1389.16 236.132 1390.9 266.955H1377.03C1375.76 246.116 1360.35 229.565 1330.88 229.565C1306.56 229.565 1289.68 244.038 1289.68 260.991C1289.68 312.386 1391.17 285.181 1391.77 343.21C1392.17 369.41 1369.13 388.708 1337.31 388.708Z" fill="#FEB062"/>
</g>
<path d="M1056.33 460.708C1057.14 459.293 1058.32 458.138 1059.87 457.243C1061.43 456.347 1063.2 455.9 1065.18 455.9C1067.31 455.9 1069.23 456.405 1070.93 457.416C1072.62 458.427 1073.96 459.856 1074.94 461.704C1075.92 463.523 1076.41 465.646 1076.41 468.072C1076.41 470.468 1075.92 472.605 1074.94 474.482C1073.96 476.359 1072.61 477.818 1070.88 478.857C1069.18 479.897 1067.28 480.416 1065.18 480.416C1063.14 480.416 1061.34 479.969 1059.79 479.074C1058.26 478.179 1057.11 477.038 1056.33 475.652V480.027H1052.4V447.973H1056.33V460.708ZM1072.39 468.072C1072.39 466.281 1072.03 464.722 1071.31 463.393C1070.6 462.065 1069.62 461.054 1068.38 460.361C1067.17 459.668 1065.83 459.322 1064.36 459.322C1062.92 459.322 1061.59 459.683 1060.35 460.405C1059.14 461.098 1058.16 462.123 1057.41 463.48C1056.69 464.808 1056.33 466.353 1056.33 468.115C1056.33 469.905 1056.69 471.479 1057.41 472.836C1058.16 474.165 1059.14 475.19 1060.35 475.912C1061.59 476.605 1062.92 476.951 1064.36 476.951C1065.83 476.951 1067.17 476.605 1068.38 475.912C1069.62 475.19 1070.6 474.165 1071.31 472.836C1072.03 471.479 1072.39 469.891 1072.39 468.072Z" fill="#3F3B3B"/>
<path d="M1101.96 456.29L1087.71 491.202H1083.65L1088.32 479.767L1078.78 456.29H1083.14L1090.56 475.522L1097.9 456.29H1101.96Z" fill="#3F3B3B"/>
<path d="M1121.35 449.836V480.027H1117.42V449.836H1121.35Z" fill="#3F3B3B"/>
<path d="M1139.58 455.857C1142.46 455.857 1144.79 456.737 1146.57 458.499C1148.36 460.231 1149.25 462.744 1149.25 466.036V480.027H1145.37V466.599C1145.37 464.231 1144.78 462.426 1143.6 461.184C1142.42 459.914 1140.8 459.278 1138.76 459.278C1136.69 459.278 1135.03 459.928 1133.79 461.228C1132.58 462.527 1131.98 464.419 1131.98 466.902V480.027H1128.05V456.29H1131.98V459.668C1132.76 458.455 1133.81 457.517 1135.13 456.853C1136.49 456.189 1137.97 455.857 1139.58 455.857Z" fill="#3F3B3B"/>
<path d="M1164.05 480.416C1162.23 480.416 1160.61 480.113 1159.17 479.507C1157.73 478.872 1156.59 478.005 1155.76 476.908C1154.92 475.782 1154.46 474.497 1154.37 473.053H1158.43C1158.55 474.237 1159.1 475.204 1160.07 475.955C1161.08 476.706 1162.39 477.081 1164 477.081C1165.5 477.081 1166.68 476.749 1167.54 476.085C1168.41 475.421 1168.84 474.583 1168.84 473.573C1168.84 472.533 1168.38 471.768 1167.46 471.277C1166.54 470.757 1165.11 470.252 1163.18 469.761C1161.43 469.299 1159.99 468.837 1158.87 468.375C1157.77 467.884 1156.82 467.176 1156.02 466.252C1155.24 465.299 1154.85 464.058 1154.85 462.527C1154.85 461.314 1155.21 460.203 1155.93 459.192C1156.65 458.181 1157.67 457.387 1159 456.809C1160.32 456.203 1161.83 455.9 1163.53 455.9C1166.15 455.9 1168.26 456.564 1169.88 457.892C1171.49 459.221 1172.35 461.04 1172.47 463.35H1168.54C1168.45 462.108 1167.95 461.112 1167.03 460.361C1166.13 459.611 1164.93 459.235 1163.4 459.235C1161.99 459.235 1160.87 459.538 1160.03 460.145C1159.2 460.751 1158.78 461.545 1158.78 462.527C1158.78 463.307 1159.02 463.957 1159.51 464.476C1160.03 464.967 1160.66 465.372 1161.41 465.689C1162.19 465.978 1163.26 466.31 1164.61 466.685C1166.31 467.147 1167.69 467.61 1168.75 468.072C1169.82 468.505 1170.73 469.169 1171.47 470.064C1172.25 470.959 1172.65 472.129 1172.68 473.573C1172.68 474.872 1172.32 476.042 1171.6 477.081C1170.88 478.121 1169.86 478.944 1168.54 479.55C1167.24 480.128 1165.75 480.416 1164.05 480.416Z" fill="#3F3B3B"/>
<path d="M1182.16 460.665C1182.94 459.307 1184.09 458.181 1185.61 457.286C1187.17 456.362 1188.97 455.9 1191.01 455.9C1193.11 455.9 1195.01 456.405 1196.71 457.416C1198.44 458.427 1199.79 459.856 1200.77 461.704C1201.75 463.523 1202.24 465.646 1202.24 468.072C1202.24 470.468 1201.75 472.605 1200.77 474.482C1199.79 476.359 1198.44 477.818 1196.71 478.857C1195.01 479.897 1193.11 480.416 1191.01 480.416C1189 480.416 1187.21 479.969 1185.66 479.074C1184.13 478.15 1182.97 477.009 1182.16 475.652V491.289H1178.23V456.29H1182.16V460.665ZM1198.22 468.072C1198.22 466.281 1197.86 464.722 1197.14 463.393C1196.42 462.065 1195.44 461.054 1194.21 460.361C1193 459.668 1191.66 459.322 1190.19 459.322C1188.75 459.322 1187.41 459.683 1186.17 460.405C1184.97 461.098 1183.99 462.123 1183.24 463.48C1182.52 464.808 1182.16 466.353 1182.16 468.115C1182.16 469.905 1182.52 471.479 1183.24 472.836C1183.99 474.165 1184.97 475.19 1186.17 475.912C1187.41 476.605 1188.75 476.951 1190.19 476.951C1191.66 476.951 1193 476.605 1194.21 475.912C1195.44 475.19 1196.42 474.165 1197.14 472.836C1197.86 471.479 1198.22 469.891 1198.22 468.072Z" fill="#3F3B3B"/>
<path d="M1209.44 452.435C1208.69 452.435 1208.06 452.175 1207.54 451.655C1207.02 451.135 1206.76 450.5 1206.76 449.749C1206.76 448.998 1207.02 448.363 1207.54 447.843C1208.06 447.323 1208.69 447.063 1209.44 447.063C1210.16 447.063 1210.76 447.323 1211.25 447.843C1211.77 448.363 1212.03 448.998 1212.03 449.749C1212.03 450.5 1211.77 451.135 1211.25 451.655C1210.76 452.175 1210.16 452.435 1209.44 452.435ZM1211.34 456.29V480.027H1207.41V456.29H1211.34Z" fill="#3F3B3B"/>
<path d="M1221.97 460.145C1222.66 458.788 1223.63 457.734 1224.9 456.983C1226.2 456.232 1227.77 455.857 1229.61 455.857V459.928H1228.57C1224.17 459.928 1221.97 462.325 1221.97 467.119V480.027H1218.04V456.29H1221.97V460.145Z" fill="#3F3B3B"/>
<path d="M1255.73 467.249C1255.73 467.999 1255.69 468.793 1255.6 469.631H1236.69C1236.84 471.97 1237.63 473.804 1239.07 475.132C1240.53 476.431 1242.3 477.081 1244.38 477.081C1246.08 477.081 1247.49 476.691 1248.61 475.912C1249.76 475.103 1250.57 474.035 1251.03 472.706H1255.26C1254.63 474.988 1253.36 476.85 1251.46 478.294C1249.56 479.709 1247.2 480.416 1244.38 480.416C1242.13 480.416 1240.12 479.911 1238.33 478.9C1236.58 477.89 1235.19 476.46 1234.19 474.612C1233.18 472.735 1232.68 470.569 1232.68 468.115C1232.68 465.66 1233.17 463.509 1234.14 461.661C1235.12 459.813 1236.49 458.398 1238.25 457.416C1240.03 456.405 1242.07 455.9 1244.38 455.9C1246.62 455.9 1248.61 456.391 1250.34 457.373C1252.06 458.354 1253.39 459.712 1254.31 461.444C1255.26 463.148 1255.73 465.083 1255.73 467.249ZM1251.67 466.426C1251.67 464.924 1251.34 463.639 1250.68 462.57C1250.02 461.473 1249.11 460.65 1247.96 460.101C1246.84 459.524 1245.59 459.235 1244.2 459.235C1242.22 459.235 1240.52 459.87 1239.11 461.141C1237.73 462.412 1236.94 464.173 1236.73 466.426H1251.67Z" fill="#3F3B3B"/>
<path d="M1298.75 449.836L1290.02 480.027H1285.62L1278.62 455.727L1271.37 480.027L1267.01 480.07L1258.59 449.836H1262.78L1269.34 475.435L1276.59 449.836H1281L1287.91 475.349L1294.51 449.836H1298.75Z" fill="#3F3B3B"/>
<path d="M1313.37 480.416C1311.15 480.416 1309.13 479.911 1307.32 478.9C1305.54 477.89 1304.12 476.46 1303.09 474.612C1302.08 472.735 1301.58 470.569 1301.58 468.115C1301.58 465.689 1302.1 463.552 1303.13 461.704C1304.2 459.827 1305.64 458.398 1307.45 457.416C1309.26 456.405 1311.29 455.9 1313.54 455.9C1315.78 455.9 1317.81 456.405 1319.63 457.416C1321.44 458.398 1322.86 459.813 1323.9 461.661C1324.97 463.509 1325.5 465.66 1325.5 468.115C1325.5 470.569 1324.95 472.735 1323.86 474.612C1322.79 476.46 1321.34 477.89 1319.5 478.9C1317.65 479.911 1315.61 480.416 1313.37 480.416ZM1313.37 476.951C1314.78 476.951 1316.1 476.619 1317.34 475.955C1318.58 475.291 1319.57 474.295 1320.32 472.966C1321.09 471.638 1321.48 470.021 1321.48 468.115C1321.48 466.209 1321.11 464.592 1320.36 463.264C1319.61 461.935 1318.63 460.953 1317.42 460.318C1316.22 459.654 1314.91 459.322 1313.49 459.322C1312.06 459.322 1310.73 459.654 1309.52 460.318C1308.34 460.953 1307.39 461.935 1306.67 463.264C1305.95 464.592 1305.59 466.209 1305.59 468.115C1305.59 470.05 1305.94 471.681 1306.63 473.01C1307.35 474.338 1308.3 475.334 1309.48 475.998C1310.66 476.634 1311.95 476.951 1313.37 476.951Z" fill="#3F3B3B"/>
<path d="M1334.59 460.145C1335.29 458.788 1336.26 457.734 1337.53 456.983C1338.83 456.232 1340.39 455.857 1342.24 455.857V459.928H1341.2C1336.8 459.928 1334.59 462.325 1334.59 467.119V480.027H1330.67V456.29H1334.59V460.145Z" fill="#3F3B3B"/>
<path d="M1359.99 480.027L1350.7 469.544V480.027H1346.77V447.973H1350.7V466.815L1359.81 456.29H1365.3L1354.16 468.115L1365.34 480.027H1359.99Z" fill="#3F3B3B"/>
<path d="M1377.37 480.416C1375.56 480.416 1373.93 480.113 1372.49 479.507C1371.05 478.872 1369.92 478.005 1369.08 476.908C1368.25 475.782 1367.79 474.497 1367.7 473.053H1371.76C1371.87 474.237 1372.42 475.204 1373.4 475.955C1374.41 476.706 1375.72 477.081 1377.33 477.081C1378.83 477.081 1380.01 476.749 1380.87 476.085C1381.73 475.421 1382.17 474.583 1382.17 473.573C1382.17 472.533 1381.7 471.768 1380.78 471.277C1379.86 470.757 1378.44 470.252 1376.51 469.761C1374.75 469.299 1373.31 468.837 1372.19 468.375C1371.1 467.884 1370.15 467.176 1369.34 466.252C1368.56 465.299 1368.17 464.058 1368.17 462.527C1368.17 461.314 1368.53 460.203 1369.25 459.192C1369.97 458.181 1371 457.387 1372.32 456.809C1373.64 456.203 1375.16 455.9 1376.85 455.9C1379.47 455.9 1381.59 456.564 1383.2 457.892C1384.81 459.221 1385.68 461.04 1385.79 463.35H1381.86C1381.78 462.108 1381.27 461.112 1380.35 460.361C1379.46 459.611 1378.25 459.235 1376.72 459.235C1375.31 459.235 1374.19 459.538 1373.36 460.145C1372.52 460.751 1372.1 461.545 1372.1 462.527C1372.1 463.307 1372.35 463.957 1372.84 464.476C1373.36 464.967 1373.99 465.372 1374.74 465.689C1375.52 465.978 1376.58 466.31 1377.93 466.685C1379.63 467.147 1381.01 467.61 1382.08 468.072C1383.14 468.505 1384.05 469.169 1384.8 470.064C1385.58 470.959 1385.98 472.129 1386.01 473.573C1386.01 474.872 1385.65 476.042 1384.93 477.081C1384.21 478.121 1383.19 478.944 1381.86 479.55C1380.57 480.128 1379.07 480.416 1377.37 480.416Z" fill="#3F3B3B"/>
<path opacity="0.64" d="M692.135 432L681.335 448C675.635 456.4 680.935 468.2 691.135 468.9C691.435 468.9 691.835 468.9 692.135 468.9C692.435 468.9 692.835 468.9 693.135 468.9C703.235 468.2 708.535 456.5 702.935 448L692.135 432Z" fill="#CC253D"/>
<path opacity="0.64" d="M692.135 425L681.335 441C675.635 449.4 680.935 461.2 691.135 461.9C691.435 461.9 691.835 461.9 692.135 461.9C692.435 461.9 692.835 461.9 693.135 461.9C703.235 461.2 708.535 449.5 702.935 441L692.135 425Z" fill="#FF8603"/>
<path opacity="0.64" d="M692.135 425L681.335 441C675.635 449.4 680.935 461.2 691.135 461.9C691.435 461.9 691.835 461.9 692.135 461.9C692.435 461.9 692.835 461.9 693.135 461.9C703.235 461.2 708.535 449.5 702.935 441L692.135 425Z" stroke="#3F2522" stroke-width="6" stroke-miterlimit="10" stroke-linecap="round" stroke-linejoin="round"/>
<defs>
<filter id="filter0_d" x="10.1289" y="22.5312" width="723.789" height="365.112" filterUnits="userSpaceOnUse" color-interpolation-filters="sRGB">
<feFlood flood-opacity="0" result="BackgroundImageFix"/>
<feColorMatrix in="SourceAlpha" type="matrix" values="0 0 0 0 0 0 0 0 0 0 0 0 0 0 0 0 0 0 127 0"/>
<feOffset dy="4"/>
<feGaussianBlur stdDeviation="2"/>
<feColorMatrix type="matrix" values="0 0 0 0 0 0 0 0 0 0 0 0 0 0 0 0 0 0 0.25 0"/>
<feBlend mode="normal" in2="BackgroundImageFix" result="effect1_dropShadow"/>
<feBlend mode="normal" in="SourceGraphic" in2="effect1_dropShadow" result="shape"/>
</filter>
<filter id="filter1_d" x="1152.44" y="178.035" width="96.6266" height="216.394" filterUnits="userSpaceOnUse" color-interpolation-filters="sRGB">
<feFlood flood-opacity="0" result="BackgroundImageFix"/>
<feColorMatrix in="SourceAlpha" type="matrix" values="0 0 0 0 0 0 0 0 0 0 0 0 0 0 0 0 0 0 127 0"/>
<feOffset dy="4"/>
<feGaussianBlur stdDeviation="2"/>
<feColorMatrix type="matrix" values="0 0 0 0 0 0 0 0 0 0 0 0 0 0 0 0 0 0 0.25 0"/>
<feBlend mode="normal" in2="BackgroundImageFix" result="effect1_dropShadow"/>
<feBlend mode="normal" in="SourceGraphic" in2="effect1_dropShadow" result="shape"/>
</filter>
<filter id="filter2_d" x="487.771" y="159.943" width="178.822" height="236.966" filterUnits="userSpaceOnUse" color-interpolation-filters="sRGB">
<feFlood flood-opacity="0" result="BackgroundImageFix"/>
<feColorMatrix in="SourceAlpha" type="matrix" values="0 0 0 0 0 0 0 0 0 0 0 0 0 0 0 0 0 0 127 0"/>
<feOffset dy="4"/>
<feGaussianBlur stdDeviation="2"/>
<feColorMatrix type="matrix" values="0 0 0 0 0 0 0 0 0 0 0 0 0 0 0 0 0 0 0.25 0"/>
<feBlend mode="normal" in2="BackgroundImageFix" result="effect1_dropShadow"/>
<feBlend mode="normal" in="SourceGraphic" in2="effect1_dropShadow" result="shape"/>
</filter>
<filter id="filter3_d" x="106" y="173.145" width="160.735" height="221.286" filterUnits="userSpaceOnUse" color-interpolation-filters="sRGB">
<feFlood flood-opacity="0" result="BackgroundImageFix"/>
<feColorMatrix in="SourceAlpha" type="matrix" values="0 0 0 0 0 0 0 0 0 0 0 0 0 0 0 0 0 0 127 0"/>
<feOffset dy="4"/>
<feGaussianBlur stdDeviation="2"/>
<feColorMatrix type="matrix" values="0 0 0 0 0 0 0 0 0 0 0 0 0 0 0 0 0 0 0.25 0"/>
<feBlend mode="normal" in2="BackgroundImageFix" result="effect1_dropShadow"/>
<feBlend mode="normal" in="SourceGraphic" in2="effect1_dropShadow" result="shape"/>
</filter>
<filter id="filter4_d" x="279.836" y="216.029" width="178.889" height="181.081" filterUnits="userSpaceOnUse" color-interpolation-filters="sRGB">
<feFlood flood-opacity="0" result="BackgroundImageFix"/>
<feColorMatrix in="SourceAlpha" type="matrix" values="0 0 0 0 0 0 0 0 0 0 0 0 0 0 0 0 0 0 127 0"/>
<feOffset dy="4"/>
<feGaussianBlur stdDeviation="2"/>
<feColorMatrix type="matrix" values="0 0 0 0 0 0 0 0 0 0 0 0 0 0 0 0 0 0 0.25 0"/>
<feBlend mode="normal" in2="BackgroundImageFix" result="effect1_dropShadow"/>
<feBlend mode="normal" in="SourceGraphic" in2="effect1_dropShadow" result="shape"/>
</filter>
<filter id="filter5_d" x="687.599" y="220.317" width="160.936" height="174.112" filterUnits="userSpaceOnUse" color-interpolation-filters="sRGB">
<feFlood flood-opacity="0" result="BackgroundImageFix"/>
<feColorMatrix in="SourceAlpha" type="matrix" values="0 0 0 0 0 0 0 0 0 0 0 0 0 0 0 0 0 0 127 0"/>
<feOffset dy="4"/>
<feGaussianBlur stdDeviation="2"/>
<feColorMatrix type="matrix" values="0 0 0 0 0 0 0 0 0 0 0 0 0 0 0 0 0 0 0.25 0"/>
<feBlend mode="normal" in2="BackgroundImageFix" result="effect1_dropShadow"/>
<feBlend mode="normal" in="SourceGraphic" in2="effect1_dropShadow" result="shape"/>
</filter>
<filter id="filter6_d" x="862.307" y="218.173" width="166.965" height="178.535" filterUnits="userSpaceOnUse" color-interpolation-filters="sRGB">
<feFlood flood-opacity="0" result="BackgroundImageFix"/>
<feColorMatrix in="SourceAlpha" type="matrix" values="0 0 0 0 0 0 0 0 0 0 0 0 0 0 0 0 0 0 127 0"/>
<feOffset dy="4"/>
<feGaussianBlur stdDeviation="2"/>
<feColorMatrix type="matrix" values="0 0 0 0 0 0 0 0 0 0 0 0 0 0 0 0 0 0 0.25 0"/>
<feBlend mode="normal" in2="BackgroundImageFix" result="effect1_dropShadow"/>
<feBlend mode="normal" in="SourceGraphic" in2="effect1_dropShadow" result="shape"/>
</filter>
<filter id="filter7_d" x="1063.14" y="216.9" width="83.5637" height="177.463" filterUnits="userSpaceOnUse" color-interpolation-filters="sRGB">
<feFlood flood-opacity="0" result="BackgroundImageFix"/>
<feColorMatrix in="SourceAlpha" type="matrix" values="0 0 0 0 0 0 0 0 0 0 0 0 0 0 0 0 0 0 127 0"/>
<feOffset dy="4"/>
<feGaussianBlur stdDeviation="2"/>
<feColorMatrix type="matrix" values="0 0 0 0 0 0 0 0 0 0 0 0 0 0 0 0 0 0 0.25 0"/>
<feBlend mode="normal" in2="BackgroundImageFix" result="effect1_dropShadow"/>
<feBlend mode="normal" in="SourceGraphic" in2="effect1_dropShadow" result="shape"/>
</filter>
<filter id="filter8_d" x="1267.72" y="218.106" width="128.05" height="178.602" filterUnits="userSpaceOnUse" color-interpolation-filters="sRGB">
<feFlood flood-opacity="0" result="BackgroundImageFix"/>
<feColorMatrix in="SourceAlpha" type="matrix" values="0 0 0 0 0 0 0 0 0 0 0 0 0 0 0 0 0 0 127 0"/>
<feOffset dy="4"/>
<feGaussianBlur stdDeviation="2"/>
<feColorMatrix type="matrix" values="0 0 0 0 0 0 0 0 0 0 0 0 0 0 0 0 0 0 0.25 0"/>
<feBlend mode="normal" in2="BackgroundImageFix" result="effect1_dropShadow"/>
<feBlend mode="normal" in="SourceGraphic" in2="effect1_dropShadow" result="shape"/>
</filter>
</defs>
</svg>
