<svg width="71" height="71" viewBox="0 0 71 71" fill="none" xmlns="http://www.w3.org/2000/svg">
<g filter="url(#filter0_d)">
<path d="M17.4208 2.24609H53.1711C56.7403 2.24609 59.9745 3.70567 62.32 6.07018C64.68 8.4201 66.1368 11.6604 66.1368 15.2363V51.0543C66.1368 54.6303 64.68 57.8705 62.32 60.2204C59.9745 62.5849 56.7403 64.0445 53.1711 64.0445H17.4208C13.8516 64.0445 10.6174 62.5849 8.27195 60.2204C5.9119 57.8705 4.45508 54.6303 4.45508 51.0543V15.2363C4.45508 11.6604 5.9119 8.4201 8.27195 6.07018C10.6174 3.70567 13.8516 2.24609 17.4208 2.24609ZM54.1472 12.3755C54.8465 12.3755 55.4292 12.9594 55.4292 13.66C55.4292 14.3752 54.8465 14.9444 54.1472 14.9444C53.4334 14.9444 52.8652 14.3752 52.8652 13.66C52.8652 12.9594 53.4334 12.3755 54.1472 12.3755ZM35.2959 15.8931C44.809 15.8931 52.5156 23.6143 52.5156 33.1453C52.5156 42.6763 44.809 50.3975 35.2959 50.3975C25.7829 50.3975 18.0763 42.6763 18.0763 33.1453C18.0763 23.6143 25.7829 15.8931 35.2959 15.8931ZM50.0535 33.1453C50.0535 24.9863 43.4396 18.3598 35.2959 18.3598C27.1523 18.3598 20.5384 24.9863 20.5384 33.1453C20.5384 41.3043 27.1523 47.9308 35.2959 47.9308C43.4396 47.9308 50.0535 41.3043 50.0535 33.1453ZM53.1711 4.72737H17.4208C14.5363 4.72737 11.914 5.90963 10.0056 7.80708C8.1117 9.71912 6.93167 12.3464 6.93167 15.2363V51.0543C6.93167 53.9443 8.1117 56.5715 10.0056 58.4835C11.914 60.381 14.5363 61.5632 17.4208 61.5632H53.1711C56.0556 61.5632 58.6779 60.381 60.5863 58.4835C62.4802 56.5715 63.6602 53.9443 63.6602 51.0543V15.2363C63.6602 12.3464 62.4802 9.71912 60.5863 7.80708C58.6779 5.90963 56.0556 4.72737 53.1711 4.72737Z" fill="#3F3B3B"/>
</g>
<defs>
<filter id="filter0_d" x="0.455078" y="0.246094" width="69.6817" height="69.7984" filterUnits="userSpaceOnUse" color-interpolation-filters="sRGB">
<feFlood flood-opacity="0" result="BackgroundImageFix"/>
<feColorMatrix in="SourceAlpha" type="matrix" values="0 0 0 0 0 0 0 0 0 0 0 0 0 0 0 0 0 0 127 0"/>
<feOffset dy="2"/>
<feGaussianBlur stdDeviation="2"/>
<feColorMatrix type="matrix" values="0 0 0 0 0 0 0 0 0 0 0 0 0 0 0 0 0 0 0.25 0"/>
<feBlend mode="normal" in2="BackgroundImageFix" result="effect1_dropShadow"/>
<feBlend mode="normal" in="SourceGraphic" in2="effect1_dropShadow" result="shape"/>
</filter>
</defs>
</svg>
