<svg width="2364" height="1241" viewBox="0 0 2364 1241" fill="none" xmlns="http://www.w3.org/2000/svg">
<rect width="2364" height="1241" fill="#30B1A7"/>
<g filter="url(#filter0_d)">
<path d="M909.997 450.973L874.257 554.886L626.113 469.538L661.853 365.625L909.997 450.973Z" fill="#FF8603"/>
<path d="M1160.11 536.918L1124.37 640.831L876.222 555.484L911.962 451.571L1160.11 536.918Z" fill="#FF8603"/>
<path d="M863.016 458.055L828.032 446.022C822.282 444.045 816.045 447.09 814.067 452.84C812.089 458.589 815.134 464.827 820.884 466.805L867.991 483.007C873.741 484.985 876.786 491.223 874.809 496.972C872.831 502.722 866.593 505.767 860.843 503.79L813.736 487.587C807.986 485.61 801.749 488.655 799.771 494.405C797.793 500.154 800.838 506.392 806.588 508.37L822.521 513.85C828.271 515.828 831.316 522.066 829.339 527.815C827.361 533.565 821.123 536.61 815.373 534.633L789.049 525.578L781.429 522.958L634.427 472.397L670.167 368.484L817.169 419.045L824.789 421.666L870.164 437.272C875.914 439.25 878.959 445.488 876.981 451.238C875.028 456.918 868.766 460.032 863.016 458.055Z" fill="#ED5F18"/>
<path d="M1113.12 544.001L1078.14 531.969C1072.39 529.991 1066.15 533.036 1064.17 538.786C1062.2 544.536 1065.24 550.774 1070.99 552.751L1118.1 568.953C1123.85 570.931 1126.89 577.169 1124.92 582.919C1122.94 588.668 1116.7 591.714 1110.95 589.736L1063.84 573.534C1058.09 571.556 1051.86 574.601 1049.88 580.351C1047.9 586.101 1050.95 592.339 1056.7 594.316L1072.63 599.796C1078.38 601.774 1081.42 608.012 1079.45 613.762C1077.47 619.512 1071.23 622.557 1065.48 620.579L1039.16 611.525L1031.54 608.904L884.534 558.343L920.274 454.431L1067.28 504.991L1074.9 507.612L1120.27 523.219C1126.02 525.196 1129.07 531.434 1127.09 537.184C1125.14 542.864 1118.87 545.979 1113.12 544.001Z" fill="#ED5F18"/>
<path d="M854.704 455.196L819.72 443.164C813.97 441.186 807.732 444.231 805.754 449.981C803.777 455.731 806.822 461.969 812.572 463.946L859.679 480.149C865.429 482.126 868.474 488.364 866.496 494.114C864.518 499.864 858.281 502.909 852.531 500.931L805.424 484.729C799.674 482.751 793.436 485.796 791.458 491.546C789.481 497.296 792.526 503.534 798.276 505.512L814.209 510.992C819.959 512.969 823.004 519.207 821.026 524.957C819.049 530.707 812.811 533.752 807.061 531.774L780.736 522.72L773.116 520.099L626.114 469.539L661.854 365.626L808.856 416.186L816.477 418.807L861.852 434.414C867.602 436.392 870.647 442.629 868.669 448.379C866.715 454.06 860.454 457.174 854.704 455.196Z" fill="#EF2531"/>
<path d="M1104.81 541.141L1069.83 529.108C1064.08 527.131 1057.84 530.176 1055.86 535.926C1053.88 541.675 1056.93 547.913 1062.68 549.891L1109.79 566.093C1115.54 568.071 1118.58 574.308 1116.6 580.058C1114.62 585.808 1108.39 588.853 1102.64 586.876L1055.53 570.673C1049.78 568.696 1043.54 571.741 1041.56 577.491C1039.59 583.24 1042.63 589.478 1048.38 591.456L1064.32 596.936C1070.07 598.914 1073.11 605.151 1071.13 610.901C1069.16 616.651 1062.92 619.696 1057.17 617.719L1030.84 608.664L1023.22 606.043L876.221 555.483L911.961 451.57L1058.96 502.131L1066.58 504.752L1111.96 520.358C1117.71 522.336 1120.75 528.574 1118.78 534.324C1116.82 540.004 1110.56 543.118 1104.81 541.141Z" fill="#EF2531"/>
<path d="M788.338 432.37L739.083 415.429C733.333 413.452 727.095 416.497 725.118 422.246C723.14 427.996 726.185 434.234 731.935 436.212L757.428 444.98C763.178 446.958 766.223 453.195 764.245 458.945C762.268 464.695 756.03 467.74 750.28 465.763L724.787 456.994C719.037 455.017 712.799 458.062 710.822 463.812C708.844 469.561 711.889 475.799 717.639 477.777L752.623 489.809C758.373 491.787 761.418 498.025 759.44 503.775C757.462 509.524 751.225 512.57 745.475 510.592L700.1 494.985L692.479 492.364L631.864 471.516L667.604 367.603L728.219 388.452L735.84 391.073L795.486 411.587C801.235 413.565 804.28 419.803 802.303 425.553C800.349 431.233 794.087 434.348 788.338 432.37Z" fill="#CC253D"/>
<path d="M1038.45 518.315L989.19 501.375C983.441 499.397 977.203 502.442 975.225 508.192C973.247 513.942 976.293 520.179 982.042 522.157L1007.54 530.925C1013.29 532.903 1016.33 539.141 1014.35 544.891C1012.38 550.64 1006.14 553.685 1000.39 551.708L974.894 542.94C969.144 540.962 962.907 544.007 960.929 549.757C958.951 555.507 961.996 561.745 967.746 563.722L1002.73 575.755C1008.48 577.732 1011.53 583.97 1009.55 589.72C1007.57 595.47 1001.33 598.515 995.582 596.537L950.207 580.931L942.587 578.31L881.971 557.461L917.711 453.549L978.327 474.397L985.947 477.018L1045.59 497.533C1051.34 499.51 1054.39 505.748 1052.41 511.498C1050.46 517.179 1044.19 520.293 1038.45 518.315Z" fill="#CC253D"/>
<path d="M854.704 455.196L819.72 443.164C813.97 441.186 807.732 444.231 805.754 449.981C803.777 455.731 806.822 461.969 812.572 463.946L859.679 480.149C865.429 482.126 868.474 488.364 866.496 494.114C864.518 499.864 858.281 502.909 852.531 500.931L805.424 484.729C799.674 482.751 793.436 485.796 791.458 491.546C789.481 497.296 792.526 503.534 798.276 505.512L814.209 510.992C819.959 512.969 823.004 519.207 821.026 524.957C819.049 530.707 812.811 533.752 807.061 531.774L780.736 522.72L773.116 520.099L626.114 469.539L661.854 365.626L808.856 416.186L816.477 418.807L861.852 434.414C867.602 436.392 870.647 442.629 868.669 448.379C866.715 454.06 860.454 457.174 854.704 455.196Z" stroke="#3F2522" stroke-width="6" stroke-miterlimit="10" stroke-linecap="round" stroke-linejoin="round"/>
<path d="M1104.81 541.141L1069.83 529.108C1064.08 527.131 1057.84 530.176 1055.86 535.926C1053.88 541.675 1056.93 547.913 1062.68 549.891L1109.79 566.093C1115.54 568.071 1118.58 574.308 1116.6 580.058C1114.62 585.808 1108.39 588.853 1102.64 586.876L1055.53 570.673C1049.78 568.696 1043.54 571.741 1041.56 577.491C1039.59 583.24 1042.63 589.478 1048.38 591.456L1064.32 596.936C1070.07 598.914 1073.11 605.151 1071.13 610.901C1069.16 616.651 1062.92 619.696 1057.17 617.719L1030.84 608.664L1023.22 606.043L876.221 555.483L911.961 451.57L1058.96 502.131L1066.58 504.752L1111.96 520.358C1117.71 522.336 1120.75 528.574 1118.78 534.324C1116.82 540.004 1110.56 543.118 1104.81 541.141Z" stroke="#3F2522" stroke-width="6" stroke-miterlimit="10" stroke-linecap="round" stroke-linejoin="round"/>
<path d="M779.333 429.272L730.078 412.332C724.328 410.354 718.09 413.399 716.113 419.149C714.135 424.899 717.18 431.136 722.93 433.114L748.423 441.882C754.173 443.86 757.218 450.098 755.241 455.848C753.263 461.597 747.025 464.642 741.275 462.665L715.782 453.897C710.032 451.919 703.794 454.964 701.817 460.714C699.839 466.464 702.884 472.702 708.634 474.679L743.618 486.712C749.368 488.689 752.413 494.927 750.435 500.677C748.458 506.427 742.22 509.472 736.47 507.494L691.095 491.888L683.474 489.267L622.859 468.418L658.599 364.506L719.215 385.354L726.835 387.975L786.481 408.49C792.231 410.467 795.276 416.705 793.298 422.455C791.344 428.136 785.083 431.25 779.333 429.272Z" fill="#38BEB3"/>
<path d="M1029.44 515.218L980.185 498.277C974.435 496.299 968.197 499.344 966.219 505.094C964.242 510.844 967.287 517.082 973.036 519.059L998.53 527.828C1004.28 529.805 1007.32 536.043 1005.35 541.793C1003.37 547.543 997.132 550.588 991.382 548.61L965.888 539.842C960.139 537.864 953.901 540.909 951.923 546.659C949.946 552.409 952.991 558.647 958.74 560.624L993.724 572.657C999.474 574.635 1002.52 580.872 1000.54 586.622C998.564 592.372 992.326 595.417 986.576 593.44L941.201 577.833L933.581 575.212L872.965 554.364L908.705 450.451L969.321 471.299L976.941 473.92L1036.59 494.435C1042.34 496.413 1045.38 502.651 1043.4 508.4C1041.45 514.081 1035.19 517.195 1029.44 515.218Z" fill="#38BEB3"/>
<path opacity="0.14" d="M686.932 374.251L651.191 478.164L626.114 469.539L661.854 365.626L686.932 374.251Z" fill="#026060"/>
<path opacity="0.14" d="M937.039 460.197L901.299 564.109L876.221 555.484L911.961 451.571L937.039 460.197Z" fill="#026060"/>
<path d="M779.333 429.272L730.078 412.332C724.328 410.354 718.09 413.399 716.113 419.149C714.135 424.899 717.18 431.136 722.93 433.114L748.423 441.882C754.173 443.86 757.218 450.098 755.241 455.848C753.263 461.597 747.025 464.642 741.275 462.665L715.782 453.897C710.032 451.919 703.794 454.964 701.817 460.714C699.839 466.464 702.884 472.702 708.634 474.679L743.618 486.712C749.368 488.689 752.413 494.927 750.435 500.677C748.458 506.427 742.22 509.472 736.47 507.494L691.095 491.888L683.474 489.267L622.859 468.418L658.599 364.506L719.215 385.354L726.835 387.975L786.481 408.49C792.231 410.467 795.276 416.705 793.298 422.455C791.344 428.136 785.083 431.25 779.333 429.272Z" stroke="#3F2522" stroke-width="6" stroke-miterlimit="10" stroke-linecap="round" stroke-linejoin="round"/>
<path d="M1029.44 515.218L980.185 498.277C974.435 496.299 968.197 499.344 966.219 505.094C964.242 510.844 967.287 517.082 973.036 519.059L998.53 527.828C1004.28 529.805 1007.32 536.043 1005.35 541.793C1003.37 547.543 997.132 550.588 991.382 548.61L965.888 539.842C960.139 537.864 953.901 540.909 951.923 546.659C949.946 552.409 952.991 558.647 958.74 560.624L993.724 572.657C999.474 574.635 1002.52 580.872 1000.54 586.622C998.564 592.372 992.326 595.417 986.576 593.44L941.201 577.833L933.581 575.212L872.965 554.364L908.705 450.451L969.321 471.299L976.941 473.92L1036.59 494.435C1042.34 496.413 1045.38 502.651 1043.4 508.4C1041.45 514.081 1035.19 517.195 1029.44 515.218Z" stroke="#3F2522" stroke-width="6" stroke-miterlimit="10" stroke-linecap="round" stroke-linejoin="round"/>
<path d="M909.997 450.973L874.257 554.886L626.113 469.538L661.853 365.625L909.997 450.973Z" stroke="#3F2522" stroke-width="6" stroke-miterlimit="10" stroke-linecap="round" stroke-linejoin="round"/>
<path d="M1158.15 542.592L1124.37 640.831L876.222 555.484L911.962 451.571L1154.43 534.967C1157.57 536.045 1159.23 539.459 1158.15 542.592Z" stroke="#3F2522" stroke-width="6" stroke-miterlimit="10" stroke-linecap="round" stroke-linejoin="round"/>
<path d="M537.306 382.672L552.339 387.843C562.384 391.298 573.37 385.935 576.825 375.89L595.267 322.271C598.722 312.226 609.708 306.863 619.753 310.318L635.478 315.727C645.523 319.182 650.886 330.168 647.431 340.212L641.784 356.631" stroke="#3F2522" stroke-width="8" stroke-miterlimit="10" stroke-linecap="round" stroke-linejoin="round"/>
<path d="M612.361 351.857L578.431 450.504C575.882 457.917 579.86 465.947 587.203 468.473L615.813 478.314C623.226 480.863 631.257 476.885 633.782 469.542L667.688 370.963C670.237 363.551 666.259 355.52 658.916 352.995L630.306 343.154C622.986 340.559 614.886 344.513 612.361 351.857Z" fill="#38BEB3"/>
<path opacity="0.23" d="M586.316 461.815C585.554 464.032 586.736 466.453 588.952 467.215L615.277 476.269C617.494 477.032 619.914 475.85 620.677 473.633C621.439 471.417 620.258 468.996 618.041 468.234L591.716 459.179C589.523 458.348 587.103 459.529 586.316 461.815Z" fill="white"/>
<path opacity="0.05" d="M623.597 361.532L593.218 449.858C592.408 452.213 593.681 454.82 596.036 455.63C598.391 456.44 600.998 455.168 601.808 452.812L632.187 364.487C632.998 362.131 631.725 359.524 629.37 358.714C627.014 357.904 624.407 359.177 623.597 361.532Z" fill="#026060"/>
<path opacity="0.05" d="M636.875 363.697L605.042 456.248C604.637 457.426 605.273 458.729 606.451 459.134C607.629 459.539 608.932 458.903 609.337 457.726L641.194 365.105C641.599 363.927 640.962 362.624 639.785 362.219C638.514 361.859 637.28 362.519 636.875 363.697Z" fill="#026060"/>
<path opacity="0.14" d="M667.781 370.917L667.519 371.679C666.028 370.159 664.209 368.914 661.992 368.151L630.057 357.167C624.515 355.261 618.394 358.191 616.464 363.803L587.061 449.288C585.656 453.375 581.187 455.557 577.099 454.151L612.268 351.901C614.817 344.489 622.893 340.604 630.236 343.129L658.847 352.97C666.422 355.498 670.307 363.574 667.781 370.917Z" fill="#026060"/>
<path opacity="0.15" d="M660.653 362.811L623.245 471.573C622.554 473.582 623.6 475.723 625.609 476.414C627.618 477.105 629.759 476.06 630.45 474.051L667.858 365.289C668.549 363.28 667.504 361.139 665.495 360.448C663.486 359.757 661.344 360.802 660.653 362.811Z" fill="#92D3D1"/>
<path d="M612.361 351.857L578.431 450.504C575.882 457.917 579.86 465.947 587.203 468.473L615.813 478.314C623.226 480.863 631.257 476.885 633.782 469.542L667.688 370.963C670.237 363.551 666.259 355.52 658.916 352.995L630.306 343.154C622.986 340.559 614.886 344.513 612.361 351.857Z" stroke="#3F2522" stroke-width="6" stroke-miterlimit="10" stroke-linecap="round" stroke-linejoin="round"/>
<path d="M457.017 355.057C454.229 363.163 458.523 372.077 466.697 374.888L514.081 391.186C522.187 393.973 531.1 389.68 533.912 381.505C536.7 373.4 532.406 364.486 524.232 361.674L476.847 345.377C468.649 342.635 459.804 346.952 457.017 355.057Z" fill="#AB5647"/>
<path opacity="0.21" d="M462.453 368.084C461.738 370.162 462.829 372.396 464.907 373.111L518.041 391.386C520.12 392.101 522.354 391.01 523.069 388.932C523.784 386.854 522.693 384.619 520.615 383.904L467.481 365.629C465.402 364.915 463.168 366.005 462.453 368.084Z" fill="#FFBBA6"/>
<path d="M534.644 377.574C532.796 374.614 529.993 372.178 526.46 370.963L479.076 354.665C470.97 351.877 462.056 356.171 459.245 364.346C458.792 365.662 458.571 366.98 458.443 368.253C456.116 364.432 455.444 359.63 457.017 355.058C459.804 346.952 468.673 342.565 476.847 345.377L524.231 361.675C530.997 364.079 535.15 370.698 534.644 377.574Z" fill="#9B4F45"/>
<path d="M457.017 355.057C454.229 363.163 458.523 372.077 466.697 374.888L514.081 391.186C522.187 393.973 531.1 389.68 533.912 381.505C536.7 373.4 532.406 364.486 524.232 361.674L476.847 345.377C468.649 342.635 459.804 346.952 457.017 355.057Z" stroke="#3F2522" stroke-width="6" stroke-miterlimit="10" stroke-linecap="round" stroke-linejoin="round"/>
<path d="M533.262 371.907L527.472 388.741C526.281 392.205 528.144 396.022 531.608 397.214C535.072 398.405 538.889 396.542 540.08 393.078L545.87 376.244C547.062 372.78 545.198 368.963 541.734 367.772C538.271 366.58 534.454 368.444 533.262 371.907Z" fill="#9B4F45"/>
<path opacity="0.21" d="M528.86 391.465C529.676 389.093 532.26 387.832 534.632 388.647C537.004 389.463 538.266 392.048 537.45 394.42C536.634 396.792 534.05 398.053 531.678 397.238C529.305 396.422 528.044 393.837 528.86 391.465Z" fill="#FFBBA6"/>
<path d="M545.939 376.268L542.532 386.175C543.724 382.711 541.86 378.894 538.396 377.703C534.933 376.511 531.116 378.375 529.924 381.838L533.331 371.932C534.523 368.468 538.34 366.605 541.804 367.796C545.267 368.988 547.131 372.805 545.939 376.268Z" fill="#8C443E"/>
<path d="M533.262 371.907L527.472 388.741C526.281 392.205 528.144 396.022 531.608 397.214C535.072 398.405 538.889 396.542 540.08 393.078L545.87 376.244C547.062 372.78 545.198 368.963 541.734 367.772C538.271 366.58 534.454 368.444 533.262 371.907Z" stroke="#3F2522" stroke-width="6" stroke-miterlimit="10" stroke-linecap="round" stroke-linejoin="round"/>
<path d="M591.152 469.83L590.866 470.662C589.961 473.294 591.393 476.111 593.957 476.993L605.318 480.9C607.95 481.806 610.767 480.373 611.649 477.81L611.934 476.978L591.152 469.83Z" stroke="#3F2522" stroke-width="6" stroke-miterlimit="10" stroke-linecap="round" stroke-linejoin="round"/>
<path d="M591.152 469.83L590.866 470.662C589.961 473.294 591.393 476.111 593.957 476.993L605.318 480.9C607.95 481.806 610.767 480.373 611.649 477.81L611.934 476.978L591.152 469.83Z" fill="#3F2522"/>
<path d="M634.278 344.443L634.564 343.611C635.469 340.979 638.332 339.639 640.895 340.521L652.256 344.429C654.888 345.334 656.228 348.196 655.346 350.76L655.061 351.591L634.278 344.443Z" stroke="#3F2522" stroke-width="6" stroke-miterlimit="10" stroke-linecap="round" stroke-linejoin="round"/>
<path d="M634.278 344.443L634.564 343.611C635.469 340.979 638.332 339.639 640.895 340.521L652.256 344.429C654.888 345.334 656.228 348.196 655.346 350.76L655.061 351.591L634.278 344.443Z" fill="#3F2522"/>
<path d="M771.083 461.142L779.593 472.436C784.054 478.386 793.492 477.526 796.407 470.627C796.478 470.419 796.574 470.142 796.645 469.934C796.717 469.726 796.812 469.449 796.883 469.241C798.805 462.078 791.963 455.618 784.74 457.473L771.083 461.142Z" fill="#CC253D"/>
<path d="M1021.19 547.087L1029.7 558.381C1034.16 564.331 1043.6 563.471 1046.51 556.572C1046.58 556.364 1046.68 556.087 1046.75 555.879C1046.82 555.672 1046.92 555.394 1046.99 555.187C1048.91 548.023 1042.07 541.564 1034.85 543.418L1021.19 547.087Z" fill="#CC253D"/>
<path d="M766.233 459.473L774.744 470.767C779.205 476.717 788.642 475.857 791.557 468.958C791.629 468.75 791.724 468.473 791.796 468.265C791.867 468.057 791.962 467.78 792.034 467.572C793.955 460.409 787.113 453.95 779.89 455.804L766.233 459.473Z" fill="#38BEB3"/>
<path d="M1016.34 545.418L1024.85 556.712C1029.31 562.663 1038.75 561.803 1041.66 554.903C1041.74 554.695 1041.83 554.418 1041.9 554.21C1041.97 554.003 1042.07 553.726 1042.14 553.518C1044.06 546.354 1037.22 539.895 1030 541.749L1016.34 545.418Z" fill="#38BEB3"/>
<path d="M766.233 459.473L774.744 470.767C779.205 476.717 788.642 475.857 791.557 468.958C791.629 468.75 791.724 468.473 791.796 468.265C791.867 468.057 791.962 467.78 792.034 467.572C793.955 460.409 787.113 453.95 779.89 455.804L766.233 459.473Z" stroke="#3F2522" stroke-width="6" stroke-miterlimit="10" stroke-linecap="round" stroke-linejoin="round"/>
<path d="M1016.34 545.418L1024.85 556.712C1029.31 562.663 1038.75 561.803 1041.66 554.903C1041.74 554.695 1041.83 554.418 1041.9 554.21C1041.97 554.003 1042.07 553.726 1042.14 553.518C1044.06 546.354 1037.22 539.895 1030 541.749L1016.34 545.418Z" stroke="#3F2522" stroke-width="6" stroke-miterlimit="10" stroke-linecap="round" stroke-linejoin="round"/>
<path opacity="0.4" d="M621.755 460.137L641.698 402.153" stroke="white" stroke-width="6" stroke-miterlimit="10" stroke-linecap="round" stroke-linejoin="round"/>
<path opacity="0.4" d="M645.772 390.308L648.632 381.995" stroke="white" stroke-width="6" stroke-miterlimit="10" stroke-linecap="round" stroke-linejoin="round"/>
<path d="M468.932 359.156C469.813 356.593 472.606 355.229 475.17 356.111C477.733 356.993 479.096 359.785 478.215 362.349C477.333 364.912 474.54 366.276 471.977 365.394C469.413 364.512 468.05 361.719 468.932 359.156Z" fill="#3E454F"/>
<path d="M468.932 359.156C469.813 356.593 472.606 355.229 475.17 356.111C477.733 356.993 479.096 359.785 478.215 362.349C477.333 364.912 474.54 366.276 471.977 365.394C469.413 364.512 468.05 361.719 468.932 359.156Z" stroke="#3F2522" stroke-width="6" stroke-miterlimit="10" stroke-linecap="round" stroke-linejoin="round"/>
</g>
<g filter="url(#filter1_d)">
<path d="M1615.62 497.177H1590.44V485.317H1615.62V443.035H1629.49V485.317H1679.06V497.177H1629.49V607.003C1629.49 632.064 1637.8 639.1 1660.24 639.1H1679.06V651.43H1658.16C1629.56 651.43 1615.69 639.77 1615.69 607.07V497.177H1615.62Z" fill="#FEB062"/>
</g>
<g filter="url(#filter2_d)">
<path d="M1006.02 481.029C1032.48 481.029 1056.87 494.43 1068.39 513.729V424.943H1096.59V651.363H1068.39V619.735C1058.14 638.43 1036.37 653.909 1005.62 653.909C960.337 653.909 925.771 618.663 925.771 566.799C925.704 514.6 960.538 481.029 1006.02 481.029ZM1011.11 505.018C980.367 505.018 954.308 527.331 954.308 566.799C954.308 606.334 980.367 629.451 1011.11 629.451C1041.86 629.451 1068.32 606.535 1068.32 567C1068.39 528.403 1041.93 505.018 1011.11 505.018Z" fill="#3F3B3B"/>
</g>
<g filter="url(#filter3_d)">
<path d="M572.001 554.135V651.43H544V438.145H572.001V536.914L660.628 438.145H696.065L598.73 544.754L696.735 651.162H660.226L572.001 554.135Z" fill="#3F3B3B"/>
</g>
<g filter="url(#filter4_d)">
<path d="M797.754 481.029C829.172 481.029 850.742 496.977 860.523 514.399V483.576H888.725V651.162H860.523V620.138C850.273 638.163 828.502 654.111 797.486 654.111C752.603 654.111 717.836 618.864 717.836 567C717.903 514.6 752.469 481.029 797.754 481.029ZM803.314 505.018C772.566 505.018 746.507 527.332 746.507 566.799C746.507 606.334 772.566 629.452 803.314 629.452C834.062 629.452 860.523 606.535 860.523 567C860.59 528.404 834.062 505.018 803.314 505.018Z" fill="#3F3B3B"/>
</g>
<g filter="url(#filter5_d)">
<path d="M1140.81 485.317L1202.3 636.353L1263.8 485.317H1278.53L1209.33 651.43H1194.8L1125.6 485.317H1140.81Z" fill="#FEB062"/>
</g>
<g filter="url(#filter6_d)">
<path d="M1381.5 653.708C1334.74 653.708 1300.31 621.209 1300.31 568.139C1300.31 515.27 1334.07 483.173 1381.5 483.173C1431.67 483.173 1459.27 518.62 1459.27 557.083C1459.27 564.52 1459.27 568.139 1458.67 573.633H1314.51C1315.78 619.735 1347.2 641.78 1381.56 641.78C1414.46 641.78 1438.17 624.358 1443.73 596.751H1458.27C1451.57 629.518 1424.24 653.708 1381.5 653.708ZM1314.44 562.376H1445.34C1447.48 516.275 1414.79 494.832 1381.03 494.832C1347.13 494.631 1315.92 516.476 1314.44 562.376Z" fill="#FEB062"/>
</g>
<g filter="url(#filter7_d)">
<path d="M1515.01 651.363H1501.14V485.318H1515.01V519.492C1523.31 495.302 1543.81 481.9 1576.7 481.9V496.307H1572.01C1543.41 496.307 1514.81 510.312 1514.81 555.542V651.363H1515.01Z" fill="#FEB062"/>
</g>
<g filter="url(#filter8_d)">
<path d="M1771.31 653.708C1734.8 653.708 1708.94 637.157 1705.72 606.535H1719.79C1721.94 627.575 1739.42 641.781 1771.04 641.781C1797.1 641.781 1812.44 626.503 1812.44 608.411C1812.44 562.511 1709.94 589.113 1709.94 526.192C1709.94 503.075 1732.79 483.106 1765.28 483.106C1800.11 483.106 1823.16 501.132 1824.9 531.955H1811.03C1809.76 511.116 1794.35 494.565 1764.88 494.565C1740.56 494.565 1723.68 509.038 1723.68 525.991C1723.68 577.386 1825.17 550.181 1825.77 608.21C1826.17 634.41 1803.13 653.708 1771.31 653.708Z" fill="#FEB062"/>
</g>
<path d="M1490.33 725.708C1491.14 724.293 1492.32 723.138 1493.87 722.243C1495.43 721.347 1497.2 720.9 1499.18 720.9C1501.31 720.9 1503.23 721.405 1504.93 722.416C1506.62 723.427 1507.96 724.856 1508.94 726.704C1509.92 728.523 1510.41 730.646 1510.41 733.072C1510.41 735.468 1509.92 737.605 1508.94 739.482C1507.96 741.359 1506.61 742.818 1504.88 743.857C1503.18 744.897 1501.28 745.416 1499.18 745.416C1497.14 745.416 1495.34 744.969 1493.79 744.074C1492.26 743.179 1491.11 742.038 1490.33 740.652V745.027H1486.4V712.973H1490.33V725.708ZM1506.39 733.072C1506.39 731.281 1506.03 729.722 1505.31 728.393C1504.6 727.065 1503.62 726.054 1502.38 725.361C1501.17 724.668 1499.83 724.322 1498.36 724.322C1496.92 724.322 1495.59 724.683 1494.35 725.405C1493.14 726.098 1492.16 727.123 1491.41 728.48C1490.69 729.808 1490.33 731.353 1490.33 733.115C1490.33 734.905 1490.69 736.479 1491.41 737.836C1492.16 739.165 1493.14 740.19 1494.35 740.912C1495.59 741.605 1496.92 741.951 1498.36 741.951C1499.83 741.951 1501.17 741.605 1502.38 740.912C1503.62 740.19 1504.6 739.165 1505.31 737.836C1506.03 736.479 1506.39 734.891 1506.39 733.072Z" fill="#3F3B3B"/>
<path d="M1535.96 721.29L1521.71 756.202H1517.65L1522.32 744.767L1512.78 721.29H1517.14L1524.56 740.522L1531.9 721.29H1535.96Z" fill="#3F3B3B"/>
<path d="M1555.35 714.836V745.027H1551.42V714.836H1555.35Z" fill="#3F3B3B"/>
<path d="M1573.58 720.857C1576.46 720.857 1578.79 721.737 1580.57 723.499C1582.36 725.231 1583.25 727.744 1583.25 731.036V745.027H1579.37V731.599C1579.37 729.231 1578.78 727.426 1577.6 726.184C1576.42 724.914 1574.8 724.278 1572.76 724.278C1570.69 724.278 1569.03 724.928 1567.79 726.228C1566.58 727.527 1565.98 729.419 1565.98 731.902V745.027H1562.05V721.29H1565.98V724.668C1566.76 723.455 1567.81 722.517 1569.13 721.853C1570.49 721.189 1571.97 720.857 1573.58 720.857Z" fill="#3F3B3B"/>
<path d="M1598.05 745.416C1596.23 745.416 1594.61 745.113 1593.17 744.507C1591.73 743.872 1590.59 743.005 1589.76 741.908C1588.92 740.782 1588.46 739.497 1588.37 738.053H1592.43C1592.55 739.237 1593.1 740.204 1594.07 740.955C1595.08 741.706 1596.39 742.081 1598 742.081C1599.5 742.081 1600.68 741.749 1601.54 741.085C1602.41 740.421 1602.84 739.583 1602.84 738.573C1602.84 737.533 1602.38 736.768 1601.46 736.277C1600.54 735.757 1599.11 735.252 1597.18 734.761C1595.43 734.299 1593.99 733.837 1592.87 733.375C1591.77 732.884 1590.82 732.176 1590.02 731.252C1589.24 730.299 1588.85 729.058 1588.85 727.527C1588.85 726.314 1589.21 725.203 1589.93 724.192C1590.65 723.181 1591.67 722.387 1593 721.809C1594.32 721.203 1595.83 720.9 1597.53 720.9C1600.15 720.9 1602.26 721.564 1603.88 722.892C1605.49 724.221 1606.35 726.04 1606.47 728.35H1602.54C1602.45 727.108 1601.95 726.112 1601.03 725.361C1600.13 724.611 1598.93 724.235 1597.4 724.235C1595.99 724.235 1594.87 724.538 1594.03 725.145C1593.2 725.751 1592.78 726.545 1592.78 727.527C1592.78 728.307 1593.02 728.957 1593.51 729.476C1594.03 729.967 1594.66 730.372 1595.41 730.689C1596.19 730.978 1597.26 731.31 1598.61 731.685C1600.31 732.147 1601.69 732.61 1602.75 733.072C1603.82 733.505 1604.73 734.169 1605.47 735.064C1606.25 735.959 1606.65 737.129 1606.68 738.573C1606.68 739.872 1606.32 741.042 1605.6 742.081C1604.88 743.121 1603.86 743.944 1602.54 744.55C1601.24 745.128 1599.75 745.416 1598.05 745.416Z" fill="#3F3B3B"/>
<path d="M1616.16 725.665C1616.94 724.307 1618.09 723.181 1619.61 722.286C1621.17 721.362 1622.97 720.9 1625.01 720.9C1627.11 720.9 1629.01 721.405 1630.71 722.416C1632.44 723.427 1633.79 724.856 1634.77 726.704C1635.75 728.523 1636.24 730.646 1636.24 733.072C1636.24 735.468 1635.75 737.605 1634.77 739.482C1633.79 741.359 1632.44 742.818 1630.71 743.857C1629.01 744.897 1627.11 745.416 1625.01 745.416C1623 745.416 1621.21 744.969 1619.66 744.074C1618.13 743.15 1616.97 742.009 1616.16 740.652V756.289H1612.23V721.29H1616.16V725.665ZM1632.22 733.072C1632.22 731.281 1631.86 729.722 1631.14 728.393C1630.42 727.065 1629.44 726.054 1628.21 725.361C1627 724.668 1625.66 724.322 1624.19 724.322C1622.75 724.322 1621.41 724.683 1620.17 725.405C1618.97 726.098 1617.99 727.123 1617.24 728.48C1616.52 729.808 1616.16 731.353 1616.16 733.115C1616.16 734.905 1616.52 736.479 1617.24 737.836C1617.99 739.165 1618.97 740.19 1620.17 740.912C1621.41 741.605 1622.75 741.951 1624.19 741.951C1625.66 741.951 1627 741.605 1628.21 740.912C1629.44 740.19 1630.42 739.165 1631.14 737.836C1631.86 736.479 1632.22 734.891 1632.22 733.072Z" fill="#3F3B3B"/>
<path d="M1643.44 717.435C1642.69 717.435 1642.06 717.175 1641.54 716.655C1641.02 716.135 1640.76 715.5 1640.76 714.749C1640.76 713.998 1641.02 713.363 1641.54 712.843C1642.06 712.323 1642.69 712.063 1643.44 712.063C1644.16 712.063 1644.76 712.323 1645.25 712.843C1645.77 713.363 1646.03 713.998 1646.03 714.749C1646.03 715.5 1645.77 716.135 1645.25 716.655C1644.76 717.175 1644.16 717.435 1643.44 717.435ZM1645.34 721.29V745.027H1641.41V721.29H1645.34Z" fill="#3F3B3B"/>
<path d="M1655.97 725.145C1656.66 723.788 1657.63 722.734 1658.9 721.983C1660.2 721.232 1661.77 720.857 1663.61 720.857V724.928H1662.57C1658.17 724.928 1655.97 727.325 1655.97 732.119V745.027H1652.04V721.29H1655.97V725.145Z" fill="#3F3B3B"/>
<path d="M1689.73 732.249C1689.73 732.999 1689.69 733.793 1689.6 734.631H1670.69C1670.84 736.97 1671.63 738.804 1673.07 740.132C1674.53 741.431 1676.3 742.081 1678.38 742.081C1680.08 742.081 1681.49 741.691 1682.61 740.912C1683.76 740.103 1684.57 739.035 1685.03 737.706H1689.26C1688.63 739.988 1687.36 741.85 1685.46 743.294C1683.56 744.709 1681.2 745.416 1678.38 745.416C1676.13 745.416 1674.12 744.911 1672.33 743.9C1670.58 742.89 1669.19 741.46 1668.19 739.612C1667.18 737.735 1666.68 735.569 1666.68 733.115C1666.68 730.66 1667.17 728.509 1668.14 726.661C1669.12 724.813 1670.49 723.398 1672.25 722.416C1674.03 721.405 1676.07 720.9 1678.38 720.9C1680.62 720.9 1682.61 721.391 1684.34 722.373C1686.06 723.354 1687.39 724.712 1688.31 726.444C1689.26 728.148 1689.73 730.083 1689.73 732.249ZM1685.67 731.426C1685.67 729.924 1685.34 728.639 1684.68 727.57C1684.02 726.473 1683.11 725.65 1681.96 725.101C1680.84 724.524 1679.59 724.235 1678.2 724.235C1676.22 724.235 1674.52 724.87 1673.11 726.141C1671.73 727.412 1670.94 729.173 1670.73 731.426H1685.67Z" fill="#3F3B3B"/>
<path d="M1732.75 714.836L1724.02 745.027H1719.62L1712.62 720.727L1705.37 745.027L1701.01 745.07L1692.59 714.836H1696.78L1703.34 740.435L1710.59 714.836H1715L1721.91 740.349L1728.51 714.836H1732.75Z" fill="#3F3B3B"/>
<path d="M1747.37 745.416C1745.15 745.416 1743.13 744.911 1741.32 743.9C1739.54 742.89 1738.12 741.46 1737.09 739.612C1736.08 737.735 1735.58 735.569 1735.58 733.115C1735.58 730.689 1736.1 728.552 1737.13 726.704C1738.2 724.827 1739.64 723.398 1741.45 722.416C1743.26 721.405 1745.29 720.9 1747.54 720.9C1749.78 720.9 1751.81 721.405 1753.63 722.416C1755.44 723.398 1756.86 724.813 1757.9 726.661C1758.97 728.509 1759.5 730.66 1759.5 733.115C1759.5 735.569 1758.95 737.735 1757.86 739.612C1756.79 741.46 1755.34 742.89 1753.5 743.9C1751.65 744.911 1749.61 745.416 1747.37 745.416ZM1747.37 741.951C1748.78 741.951 1750.1 741.619 1751.34 740.955C1752.58 740.291 1753.57 739.295 1754.32 737.966C1755.09 736.638 1755.48 735.021 1755.48 733.115C1755.48 731.209 1755.11 729.592 1754.36 728.264C1753.61 726.935 1752.63 725.953 1751.42 725.318C1750.22 724.654 1748.91 724.322 1747.49 724.322C1746.06 724.322 1744.73 724.654 1743.52 725.318C1742.34 725.953 1741.39 726.935 1740.67 728.264C1739.95 729.592 1739.59 731.209 1739.59 733.115C1739.59 735.05 1739.94 736.681 1740.63 738.01C1741.35 739.338 1742.3 740.334 1743.48 740.998C1744.66 741.634 1745.95 741.951 1747.37 741.951Z" fill="#3F3B3B"/>
<path d="M1768.59 725.145C1769.29 723.788 1770.26 722.734 1771.53 721.983C1772.83 721.232 1774.39 720.857 1776.24 720.857V724.928H1775.2C1770.8 724.928 1768.59 727.325 1768.59 732.119V745.027H1764.67V721.29H1768.59V725.145Z" fill="#3F3B3B"/>
<path d="M1793.99 745.027L1784.7 734.544V745.027H1780.77V712.973H1784.7V731.815L1793.81 721.29H1799.3L1788.16 733.115L1799.34 745.027H1793.99Z" fill="#3F3B3B"/>
<path d="M1811.37 745.416C1809.56 745.416 1807.93 745.113 1806.49 744.507C1805.05 743.872 1803.92 743.005 1803.08 741.908C1802.25 740.782 1801.79 739.497 1801.7 738.053H1805.76C1805.87 739.237 1806.42 740.204 1807.4 740.955C1808.41 741.706 1809.72 742.081 1811.33 742.081C1812.83 742.081 1814.01 741.749 1814.87 741.085C1815.73 740.421 1816.17 739.583 1816.17 738.573C1816.17 737.533 1815.7 736.768 1814.78 736.277C1813.86 735.757 1812.44 735.252 1810.51 734.761C1808.75 734.299 1807.31 733.837 1806.19 733.375C1805.1 732.884 1804.15 732.176 1803.34 731.252C1802.56 730.299 1802.17 729.058 1802.17 727.527C1802.17 726.314 1802.53 725.203 1803.25 724.192C1803.97 723.181 1805 722.387 1806.32 721.809C1807.64 721.203 1809.16 720.9 1810.85 720.9C1813.47 720.9 1815.59 721.564 1817.2 722.892C1818.81 724.221 1819.68 726.04 1819.79 728.35H1815.86C1815.78 727.108 1815.27 726.112 1814.35 725.361C1813.46 724.611 1812.25 724.235 1810.72 724.235C1809.31 724.235 1808.19 724.538 1807.36 725.145C1806.52 725.751 1806.1 726.545 1806.1 727.527C1806.1 728.307 1806.35 728.957 1806.84 729.476C1807.36 729.967 1807.99 730.372 1808.74 730.689C1809.52 730.978 1810.58 731.31 1811.93 731.685C1813.63 732.147 1815.01 732.61 1816.08 733.072C1817.14 733.505 1818.05 734.169 1818.8 735.064C1819.58 735.959 1819.98 737.129 1820.01 738.573C1820.01 739.872 1819.65 741.042 1818.93 742.081C1818.21 743.121 1817.19 743.944 1815.86 744.55C1814.57 745.128 1813.07 745.416 1811.37 745.416Z" fill="#3F3B3B"/>
<path opacity="0.64" d="M1126.13 697L1115.33 713C1109.63 721.4 1114.93 733.2 1125.13 733.9C1125.43 733.9 1125.83 733.9 1126.13 733.9C1126.43 733.9 1126.83 733.9 1127.13 733.9C1137.23 733.2 1142.53 721.5 1136.93 713L1126.13 697Z" fill="#CC253D"/>
<path opacity="0.64" d="M1126.13 690L1115.33 706C1109.63 714.4 1114.93 726.2 1125.13 726.9C1125.43 726.9 1125.83 726.9 1126.13 726.9C1126.43 726.9 1126.83 726.9 1127.13 726.9C1137.23 726.2 1142.53 714.5 1136.93 706L1126.13 690Z" fill="#FF8603"/>
<path opacity="0.64" d="M1126.13 690L1115.33 706C1109.63 714.4 1114.93 726.2 1125.13 726.9C1125.43 726.9 1125.83 726.9 1126.13 726.9C1126.43 726.9 1126.83 726.9 1127.13 726.9C1137.23 726.2 1142.53 714.5 1136.93 706L1126.13 690Z" stroke="#3F2522" stroke-width="6" stroke-miterlimit="10" stroke-linecap="round" stroke-linejoin="round"/>
<defs>
<filter id="filter0_d" x="444.129" y="287.531" width="723.789" height="365.112" filterUnits="userSpaceOnUse" color-interpolation-filters="sRGB">
<feFlood flood-opacity="0" result="BackgroundImageFix"/>
<feColorMatrix in="SourceAlpha" type="matrix" values="0 0 0 0 0 0 0 0 0 0 0 0 0 0 0 0 0 0 127 0"/>
<feOffset dy="4"/>
<feGaussianBlur stdDeviation="2"/>
<feColorMatrix type="matrix" values="0 0 0 0 0 0 0 0 0 0 0 0 0 0 0 0 0 0 0.25 0"/>
<feBlend mode="normal" in2="BackgroundImageFix" result="effect1_dropShadow"/>
<feBlend mode="normal" in="SourceGraphic" in2="effect1_dropShadow" result="shape"/>
</filter>
<filter id="filter1_d" x="1586.44" y="443.035" width="96.6266" height="216.394" filterUnits="userSpaceOnUse" color-interpolation-filters="sRGB">
<feFlood flood-opacity="0" result="BackgroundImageFix"/>
<feColorMatrix in="SourceAlpha" type="matrix" values="0 0 0 0 0 0 0 0 0 0 0 0 0 0 0 0 0 0 127 0"/>
<feOffset dy="4"/>
<feGaussianBlur stdDeviation="2"/>
<feColorMatrix type="matrix" values="0 0 0 0 0 0 0 0 0 0 0 0 0 0 0 0 0 0 0.25 0"/>
<feBlend mode="normal" in2="BackgroundImageFix" result="effect1_dropShadow"/>
<feBlend mode="normal" in="SourceGraphic" in2="effect1_dropShadow" result="shape"/>
</filter>
<filter id="filter2_d" x="921.771" y="424.943" width="178.822" height="236.966" filterUnits="userSpaceOnUse" color-interpolation-filters="sRGB">
<feFlood flood-opacity="0" result="BackgroundImageFix"/>
<feColorMatrix in="SourceAlpha" type="matrix" values="0 0 0 0 0 0 0 0 0 0 0 0 0 0 0 0 0 0 127 0"/>
<feOffset dy="4"/>
<feGaussianBlur stdDeviation="2"/>
<feColorMatrix type="matrix" values="0 0 0 0 0 0 0 0 0 0 0 0 0 0 0 0 0 0 0.25 0"/>
<feBlend mode="normal" in2="BackgroundImageFix" result="effect1_dropShadow"/>
<feBlend mode="normal" in="SourceGraphic" in2="effect1_dropShadow" result="shape"/>
</filter>
<filter id="filter3_d" x="540" y="438.145" width="160.735" height="221.286" filterUnits="userSpaceOnUse" color-interpolation-filters="sRGB">
<feFlood flood-opacity="0" result="BackgroundImageFix"/>
<feColorMatrix in="SourceAlpha" type="matrix" values="0 0 0 0 0 0 0 0 0 0 0 0 0 0 0 0 0 0 127 0"/>
<feOffset dy="4"/>
<feGaussianBlur stdDeviation="2"/>
<feColorMatrix type="matrix" values="0 0 0 0 0 0 0 0 0 0 0 0 0 0 0 0 0 0 0.25 0"/>
<feBlend mode="normal" in2="BackgroundImageFix" result="effect1_dropShadow"/>
<feBlend mode="normal" in="SourceGraphic" in2="effect1_dropShadow" result="shape"/>
</filter>
<filter id="filter4_d" x="713.836" y="481.029" width="178.889" height="181.081" filterUnits="userSpaceOnUse" color-interpolation-filters="sRGB">
<feFlood flood-opacity="0" result="BackgroundImageFix"/>
<feColorMatrix in="SourceAlpha" type="matrix" values="0 0 0 0 0 0 0 0 0 0 0 0 0 0 0 0 0 0 127 0"/>
<feOffset dy="4"/>
<feGaussianBlur stdDeviation="2"/>
<feColorMatrix type="matrix" values="0 0 0 0 0 0 0 0 0 0 0 0 0 0 0 0 0 0 0.25 0"/>
<feBlend mode="normal" in2="BackgroundImageFix" result="effect1_dropShadow"/>
<feBlend mode="normal" in="SourceGraphic" in2="effect1_dropShadow" result="shape"/>
</filter>
<filter id="filter5_d" x="1121.6" y="485.317" width="160.936" height="174.112" filterUnits="userSpaceOnUse" color-interpolation-filters="sRGB">
<feFlood flood-opacity="0" result="BackgroundImageFix"/>
<feColorMatrix in="SourceAlpha" type="matrix" values="0 0 0 0 0 0 0 0 0 0 0 0 0 0 0 0 0 0 127 0"/>
<feOffset dy="4"/>
<feGaussianBlur stdDeviation="2"/>
<feColorMatrix type="matrix" values="0 0 0 0 0 0 0 0 0 0 0 0 0 0 0 0 0 0 0.25 0"/>
<feBlend mode="normal" in2="BackgroundImageFix" result="effect1_dropShadow"/>
<feBlend mode="normal" in="SourceGraphic" in2="effect1_dropShadow" result="shape"/>
</filter>
<filter id="filter6_d" x="1296.31" y="483.173" width="166.965" height="178.535" filterUnits="userSpaceOnUse" color-interpolation-filters="sRGB">
<feFlood flood-opacity="0" result="BackgroundImageFix"/>
<feColorMatrix in="SourceAlpha" type="matrix" values="0 0 0 0 0 0 0 0 0 0 0 0 0 0 0 0 0 0 127 0"/>
<feOffset dy="4"/>
<feGaussianBlur stdDeviation="2"/>
<feColorMatrix type="matrix" values="0 0 0 0 0 0 0 0 0 0 0 0 0 0 0 0 0 0 0.25 0"/>
<feBlend mode="normal" in2="BackgroundImageFix" result="effect1_dropShadow"/>
<feBlend mode="normal" in="SourceGraphic" in2="effect1_dropShadow" result="shape"/>
</filter>
<filter id="filter7_d" x="1497.14" y="481.9" width="83.5637" height="177.463" filterUnits="userSpaceOnUse" color-interpolation-filters="sRGB">
<feFlood flood-opacity="0" result="BackgroundImageFix"/>
<feColorMatrix in="SourceAlpha" type="matrix" values="0 0 0 0 0 0 0 0 0 0 0 0 0 0 0 0 0 0 127 0"/>
<feOffset dy="4"/>
<feGaussianBlur stdDeviation="2"/>
<feColorMatrix type="matrix" values="0 0 0 0 0 0 0 0 0 0 0 0 0 0 0 0 0 0 0.25 0"/>
<feBlend mode="normal" in2="BackgroundImageFix" result="effect1_dropShadow"/>
<feBlend mode="normal" in="SourceGraphic" in2="effect1_dropShadow" result="shape"/>
</filter>
<filter id="filter8_d" x="1701.72" y="483.106" width="128.05" height="178.602" filterUnits="userSpaceOnUse" color-interpolation-filters="sRGB">
<feFlood flood-opacity="0" result="BackgroundImageFix"/>
<feColorMatrix in="SourceAlpha" type="matrix" values="0 0 0 0 0 0 0 0 0 0 0 0 0 0 0 0 0 0 127 0"/>
<feOffset dy="4"/>
<feGaussianBlur stdDeviation="2"/>
<feColorMatrix type="matrix" values="0 0 0 0 0 0 0 0 0 0 0 0 0 0 0 0 0 0 0.25 0"/>
<feBlend mode="normal" in2="BackgroundImageFix" result="effect1_dropShadow"/>
<feBlend mode="normal" in="SourceGraphic" in2="effect1_dropShadow" result="shape"/>
</filter>
</defs>
</svg>
