<svg width="87" height="79" viewBox="0 0 87 79" fill="none" xmlns="http://www.w3.org/2000/svg">
<g clip-path="url(#clip0)" filter="url(#filter0_d)">
<path d="M73.7568 17.7429C73.7568 17.7271 73.741 17.6955 73.741 17.6797C79.0972 15.0727 80.7246 8.72106 80.7246 8.72106C75.558 11.6283 72.2084 12.4183 70.502 12.6395C67.579 9.55846 63.4394 7.63086 58.8416 7.63086C49.9778 7.63086 42.7888 14.8357 42.7888 23.6995C42.7888 24.9635 42.9468 26.1959 43.2154 27.3809C41.3826 27.2861 39.534 27.0965 39.534 27.0965V27.1123C20.6056 24.8213 9.65623 10.4433 9.65623 10.4433C4.26843 22.1195 10.8254 29.2769 14.3962 32.1209C9.43503 31.4731 7.36523 29.9721 7.36523 29.9721C8.18683 42.8649 17.5878 45.6141 21.9012 46.2145C18.1566 47.0519 13.0216 46.3251 13.0216 46.3251C16.1658 55.1731 23.2758 57.1323 27.4628 57.4957C18.3778 66.6913 4.01562 64.0527 4.01562 64.0527C25.6458 78.0515 48.0028 67.6867 48.0028 67.6867C72.9352 55.2047 74.8628 33.7009 74.7206 26.2907C74.847 25.5007 74.926 24.6949 74.926 23.8733C78.7338 20.5711 83.0156 15.0095 83.0156 15.0095C80.535 16.5421 76.7588 17.3321 73.7568 17.7429Z" fill="#80D5CE"/>
</g>
<defs>
<filter id="filter0_d" x="0" y="-2" width="87" height="87" filterUnits="userSpaceOnUse" color-interpolation-filters="sRGB">
<feFlood flood-opacity="0" result="BackgroundImageFix"/>
<feColorMatrix in="SourceAlpha" type="matrix" values="0 0 0 0 0 0 0 0 0 0 0 0 0 0 0 0 0 0 127 0"/>
<feOffset dy="2"/>
<feGaussianBlur stdDeviation="2"/>
<feColorMatrix type="matrix" values="0 0 0 0 0 0 0 0 0 0 0 0 0 0 0 0 0 0 0.25 0"/>
<feBlend mode="normal" in2="BackgroundImageFix" result="effect1_dropShadow"/>
<feBlend mode="normal" in="SourceGraphic" in2="effect1_dropShadow" result="shape"/>
</filter>
<clipPath id="clip0">
<rect width="79" height="79" fill="white" transform="translate(4)"/>
</clipPath>
</defs>
</svg>
