<svg width="349" height="426" viewBox="0 0 349 426" fill="none" xmlns="http://www.w3.org/2000/svg">
<path fill-rule="evenodd" clip-rule="evenodd" d="M155.935 75.2443C162.411 79.1475 168.774 81.0333 171.76 80.2635C179.25 78.333 179.938 50.9351 174.143 40.1339C168.349 29.3328 138.558 24.625 137.057 46.0255C136.536 53.4529 139.654 60.0814 144.262 65.4901L136 104H160L155.935 75.2443Z" fill="#B28B67"/>
<path fill-rule="evenodd" clip-rule="evenodd" d="M142.418 70.3075C139.406 56.9065 130.825 47.7714 132.135 41.7817C133.446 35.792 139.121 34.3321 139.121 34.3321C139.121 34.3321 142.057 22.4572 158.056 24.2304C174.055 26.0036 183.819 32.6478 179.602 47.2679C175.726 47.2679 171.046 45.866 164.576 48.2679C161.496 49.411 160.17 55.358 160.17 55.358H157.246C157.246 55.358 152.989 48.3006 148.851 50.1712C144.713 52.0418 146.97 59.2586 146.97 59.2586L145.529 70.3075H142.418Z" fill="#191847"/>
<path fill-rule="evenodd" clip-rule="evenodd" d="M69 229C60.1634 229 53 236.163 53 245V337C53 345.837 60.1634 353 69 353H184C192.837 353 200 345.837 200 337V245C200 236.163 192.837 229 184 229H69ZM85 257C82.7909 257 81 258.791 81 261V321C81 323.209 82.7909 325 85 325H168C170.209 325 172 323.209 172 321V261C172 258.791 170.209 257 168 257H85Z" fill="#C5CFD6"/>
<path fill-rule="evenodd" clip-rule="evenodd" d="M299.159 348C279.443 323.924 266.103 306.075 259.138 294.454C247.213 274.555 237.453 256.848 234.373 250.084C227.028 233.955 251.282 226.403 256.771 233.926C265.079 245.312 282.822 281.143 310 341.417L299.159 348Z" fill="#B28B67"/>
<path fill-rule="evenodd" clip-rule="evenodd" d="M258.758 341L222.065 248.637C214.217 231.8 252.116 220.732 257.883 228.568C270.977 246.357 302.099 316.534 306 321.834L258.758 341Z" fill="#2F3676"/>
<path fill-rule="evenodd" clip-rule="evenodd" d="M161.033 322.477C168.181 312.051 194.179 276.974 208.339 262.461C212.408 258.291 216.379 254.288 220.134 250.557C231.296 239.47 253.524 258.106 242.382 268.205C214.635 293.355 174.151 327.307 170.769 330.334C166.028 334.577 156.541 329.029 161.033 322.477Z" fill="#B28B67"/>
<path fill-rule="evenodd" clip-rule="evenodd" d="M165.664 318.185C164.971 317.241 163.63 317.017 162.734 317.771C161.099 319.146 158.748 321.264 157.899 322.734C156.547 325.076 154.733 330.021 154.733 330.021C157.45 331.59 203.578 358.222 203.578 358.222C203.578 358.222 209.116 353.027 205.304 350.157C201.491 347.286 199.012 345.315 199.012 345.315L182.152 322.087C181.821 321.631 181.179 321.538 180.733 321.882L177.23 324.579C177.23 324.579 172.409 324.159 170.035 322.788C168.59 321.953 166.824 319.767 165.664 318.185Z" fill="#E4E4E4"/>
<path fill-rule="evenodd" clip-rule="evenodd" d="M293.45 343.284C292.378 342.813 291.104 343.29 290.705 344.391C289.977 346.398 289 349.409 289 351.106C289 353.811 289.901 359 289.901 359C293.039 359 346.303 359 346.303 359C346.303 359 348.502 351.732 343.765 351.152C339.028 350.573 335.895 350.106 335.895 350.106L309.68 338.419C309.165 338.189 308.563 338.43 308.348 338.951L306.663 343.039C306.663 343.039 302.278 345.085 299.537 345.085C297.868 345.085 295.246 344.074 293.45 343.284Z" fill="#E4E4E4"/>
<path fill-rule="evenodd" clip-rule="evenodd" d="M208.862 253.25C208.862 253.25 163.117 245.798 147.581 243.058C118.057 237.852 109.448 221.965 114.538 187.302L168.934 187.302C179.732 190.42 259.168 225.872 259.168 225.872C268.696 230.602 266.921 244.547 265.18 249.142C265.073 249.423 216.992 331.713 216.992 331.713L172.494 303.365L208.946 256.59C208.946 256.59 210.39 253.682 208.862 253.25Z" fill="#5C63AB"/>
<path fill-rule="evenodd" clip-rule="evenodd" d="M244.679 197.635L212.781 174.211L205.73 191.642L237.317 204.741C246.251 215.235 251.246 219.61 252.304 217.865C253.195 216.394 252.498 215.017 251.856 213.749C251.356 212.76 250.89 211.838 251.233 210.989C252.018 209.049 258.019 209.254 263.705 209.691C269.392 210.128 267.735 207.598 266.364 206.349C260.559 202.874 253.331 199.97 244.679 197.635ZM77.3979 238.908C80.3284 232.963 90.3079 175.02 90.3079 175.02L111.205 175.102C111.205 175.102 91.8506 237.583 90.3079 241.406C88.304 246.372 91.708 253.587 94.0161 258.48C94.3732 259.237 94.704 259.938 94.9846 260.567C91.7819 262 90.2434 260.268 88.6215 258.442C86.7896 256.379 84.8511 254.197 80.2879 256.319C78.5249 257.14 76.8567 258.109 75.2268 259.057C69.5968 262.329 64.4248 265.336 57.389 260.994C56.2736 260.306 55.0513 257.715 58.0046 255.69C65.3623 250.645 75.9653 241.815 77.3979 238.908Z" fill="#B28B67"/>
<path fill-rule="evenodd" clip-rule="evenodd" d="M149.695 87.332L158.342 85.8489C190.425 113.564 203.603 166.809 242.93 195.015L233.464 206.748C165.24 198.3 148.33 133.355 149.695 87.332Z" fill="#E87613"/>
<path fill-rule="evenodd" clip-rule="evenodd" d="M112 196C112 196 164.008 196 188.511 196C192.008 196 191.349 190.952 190.843 188.404C185.011 159.004 162.241 127.312 162.241 85.4607L140.172 82C121.917 111.358 115.605 147.505 112 196Z" fill="#DDE3E9"/>
<path fill-rule="evenodd" clip-rule="evenodd" d="M103.397 217C99.9583 225.259 96.5863 232.465 93.409 238H77C75.2346 180.919 96.8454 136.996 114.932 110.513C110.916 110.226 107.291 108.545 105 104.411C96.9336 89.8561 99.8467 81.8424 108.467 79.2083C113.207 77.7598 117.666 78.7485 123.002 79.932C127.369 80.9004 132.325 81.9993 138.504 82C138.506 82 138.508 82 138.51 82C139.109 82 139.654 82.0401 140.149 82.1169L147.472 82.5347C147.472 82.5347 177.205 183.305 163.872 217H103.397Z" fill="#FF9B21"/>
<path fill-rule="evenodd" clip-rule="evenodd" d="M103.397 217C107.909 206.164 112.535 193.516 116.987 180.454C118.645 194.839 121.405 209.286 126 217H103.397Z" fill="black" fill-opacity="0.1"/>
</svg>
