<svg id="Layer_1" data-name="Layer 1" xmlns="http://www.w3.org/2000/svg" viewBox="0 0 1080 1080"><defs><style>.cls-1{font-size:143.49px;font-family:Montserrat-ExtraBold, Montserrat;font-weight:800;}.cls-1,.cls-12{fill:#00308f;}.cls-2{letter-spacing:-0.01em;}.cls-3{font-family:Montserrat-SemiBold, Montserrat;font-weight:600;}.cls-4{font-family:Montserrat-Regular, Montserrat;font-weight:400;fill:#000;}.cls-5{font-size:47.29px;font-family:Montserrat-Medium, Montserrat;font-weight:500;letter-spacing:0.3em;}.cls-6{letter-spacing:0.29em;}.cls-7{letter-spacing:0.29em;}.cls-8{letter-spacing:0.29em;}.cls-9{letter-spacing:0.3em;}.cls-10{letter-spacing:0.31em;}.cls-11{letter-spacing:0.3em;}.cls-12{stroke:#00308f;stroke-miterlimit:10;stroke-width:33px;}</style></defs><text class="cls-1" transform="translate(27.09 705.56)">in<tspan class="cls-2" x="144.78" y="0">F</tspan><tspan x="235.47" y="0">inie</tspan><tspan class="cls-3" x="517.29" y="0"> </tspan><tspan class="cls-4" x="556.89" y="0">Studio</tspan></text><text class="cls-5" transform="translate(78.62 767.9)">C<tspan class="cls-6" x="48.37" y="0">r</tspan><tspan class="cls-7" x="81.38" y="0">e</tspan><tspan x="123.79" y="0">ativi</tspan><tspan class="cls-8" x="295.39" y="0">t</tspan><tspan x="328.68" y="0">y has </tspan><tspan class="cls-9" x="549.84" y="0">n</tspan><tspan x="596.37" y="0">o limi</tspan><tspan class="cls-10" x="813.78" y="0">t</tspan><tspan class="cls-11" x="848.02" y="0">...</tspan></text><path class="cls-12" d="M478.55,351.31,419.2,303.8a18.86,18.86,0,0,0-26.52,2.94l-47.51,59.35A94.89,94.89,0,0,1,478.55,351.31Z"/><path class="cls-12" d="M360,499.48,419.31,547a18.86,18.86,0,0,0,26.51-2.94l47.51-59.36A94.89,94.89,0,0,1,360,499.48Z"/><path class="cls-12" d="M345.17,366.09l-47.51,59.36A18.85,18.85,0,0,0,300.6,452L360,499.48A94.91,94.91,0,0,1,345.17,366.09Z"/><path class="cls-12" d="M586.66,368.1l47.51-59.35a18.86,18.86,0,0,1,26.51-2.94L720,353.32A94.89,94.89,0,0,0,586.66,368.1Z"/><path class="cls-12" d="M734.82,486.7l-47.51,59.36A18.86,18.86,0,0,1,660.8,549l-59.36-47.51A94.89,94.89,0,0,0,734.82,486.7Z"/><path class="cls-12" d="M720,353.32l59.36,47.51a18.86,18.86,0,0,1,2.93,26.52L734.82,486.7A94.89,94.89,0,0,0,720,353.32Z"/><line class="cls-12" x1="589.6" y1="364.42" x2="490.44" y2="488.3"/></svg>