<svg width="1046" height="726" viewBox="0 0 1046 726" fill="none" xmlns="http://www.w3.org/2000/svg">
<path fill-rule="evenodd" clip-rule="evenodd" d="M892.225 195.334C891.692 194.946 890.426 194.809 889.838 194.692C887.39 194.21 884.869 194 882.374 194C874.681 194.012 866.863 194.767 859.298 196.074C854.494 196.903 848.687 199.696 843.909 198.179C835.585 195.537 827.172 195.667 819.274 199.439C812.053 202.888 806.572 209.439 803.373 216.517C802.89 217.586 800.932 221.519 800.378 224.17C800.141 224.712 799.913 225.257 799.708 225.811C799.126 227.384 798.603 228.984 798.118 230.588C797.91 231.272 797.389 232.782 798.008 233.074C797.019 234.901 796.141 236.783 795.411 238.726C793.286 244.378 790.962 250.578 790.215 256.568C789.939 258.786 789.928 261.017 790.185 263.239C790.312 264.338 790.26 266.546 791.004 267.382C792.585 269.154 793.396 266.673 793.218 265.491C791.858 256.485 794.485 248.027 797.598 239.561C799.612 234.087 802.92 229.078 806.626 224.543C809.625 220.871 812.842 217.98 816.953 215.546C821.981 212.569 827.356 210.163 832.681 207.749C836.184 206.161 839.691 204.615 843.291 203.247C844.092 202.942 845.351 202.161 846.239 202.158C848.116 202.152 850.777 203.537 852.59 204.052C858.554 205.748 864.594 207.919 870.758 208.785C874.712 209.341 878.416 208.715 882.113 207.398C882.491 207.264 883.125 206.918 883.901 206.424C886.646 205.368 889.243 204.039 891.504 202.121C892.806 201.017 893.989 199.589 895.067 198.282C895.389 197.892 895.532 197.444 895.537 197.018C895.781 196.891 895.943 196.741 895.98 196.567C896.249 195.281 893.796 195.258 892.225 195.334" fill="#89C5CC"/>
<path fill-rule="evenodd" clip-rule="evenodd" d="M267.273 302.541C265.764 303.763 264.284 305.012 262.84 306.31C261.739 307.301 259.791 308.485 259.396 309.985C258.985 311.544 260.282 313.003 261.306 313.945C266.723 318.929 272.823 322.298 280.329 322.859C291.887 323.722 301.946 320.77 311.974 314.963C319.018 310.883 323.684 304.849 324.703 296.701C333.092 300.187 341.205 304.993 348.1 310.891C351.502 313.801 354.432 317.025 357.142 320.599C358.878 322.889 360.557 325.215 362.115 327.631C362.792 328.68 363.481 330.542 364.599 331.146C365.912 331.856 367.499 330.743 367.434 329.284C367.379 328.069 366.068 326.66 365.454 325.667C364.436 324.018 363.402 322.379 362.313 320.776C360.551 318.179 358.73 315.62 356.744 313.19C352.28 307.73 346.601 303.221 340.714 299.375C329.42 291.997 317.025 287.349 303.283 286.955C294.833 286.713 287.725 289.6 280.499 293.911C276 296.595 271.356 299.235 267.273 302.541" fill="#DDE3E9"/>
<path fill-rule="evenodd" clip-rule="evenodd" d="M376.883 266.856C368.077 257.787 359.241 248.832 349.403 240.847C343.605 236.141 337.495 231.863 331.511 227.401C332.201 228.006 332.878 228.628 333.539 229.266C331.671 227.998 329.226 227.281 327.246 226.107C325.037 224.798 322.925 223.301 320.854 221.791C316.811 218.845 312.829 215.843 308.673 213.051C304.043 209.94 299.245 207.066 294.536 204.072C290.539 201.532 286.494 198.751 282.218 196.674C279.888 195.542 277.553 194.201 275.213 193.02C274.43 192.625 266.484 187.608 266.504 187.593C266.943 187.262 270.942 189.14 271.56 189.393C273.366 190.131 275.094 191.013 276.83 191.893C275.877 190.013 275.123 188.038 274.712 185.958C274.585 185.317 273.569 180.644 274.089 180.252C274.348 180.057 276.883 188.416 277.013 189.22C277.119 189.872 277.103 190.812 277.317 191.431C277.662 192.429 277.645 192.127 278.405 192.69C279.798 193.721 281.647 194.365 283.154 195.227C283.968 195.68 286.485 197.48 288.001 197.993C292.588 200.221 297.238 203.649 301.597 206.495C300.453 204.345 299.582 202.097 298.948 199.741C298.797 199.182 297.167 194.165 297.563 193.867C298.008 193.532 301.112 201.195 301.296 201.92C301.637 203.268 301.708 204.768 302.136 206.079C302.605 207.518 304.07 208.028 305.39 208.867C310.247 211.953 314.938 215.232 319.55 218.662C324.583 209.711 318.78 198.903 313.89 191.393C310.364 185.98 305.619 181.34 300.608 177.289C293.92 171.882 286.269 167.563 278.627 163.612C269.723 159.009 260.099 156.156 250.093 154.839C244.86 154.149 239.507 154.169 234.221 154.39C231.639 154.498 229.16 154.84 226.686 155.682C225.57 156.062 224.492 156.541 223.442 157.077C222.644 157.484 220.713 157.914 220.255 158.521C216.477 163.438 214.545 168.337 214.84 174.515C215.119 180.363 216.966 186.214 219.472 191.431C222.264 197.24 225.854 202.512 230.55 206.936C234.132 210.312 238.137 213.25 242.116 216.15C256.267 226.463 274.208 235.433 292.536 233.128C298.469 232.383 304.112 230.308 309.385 227.489C310.628 226.824 311.863 226.152 313.036 225.368C313.827 224.839 315.941 222.456 316.736 222.37C317.827 222.251 320.175 224.469 321.198 225.144C328.972 230.275 336.542 235.685 343.953 241.313C351.839 247.301 359.337 253.697 366.615 260.393C369.71 263.242 372.786 266.096 375.791 269.04C376.491 269.725 378.202 272.247 379.471 272.361C380.273 272.434 380.814 271.749 380.7 271.006C380.501 269.715 377.785 267.784 376.883 266.856" fill="#C1DEE2"/>
<path fill-rule="evenodd" clip-rule="evenodd" d="M882.98 231.66C879.57 230.915 875.803 230.972 872.329 231.033C853.695 231.287 835.397 240.109 823.489 254.205C813.351 266.205 810.563 281.125 808.56 296.207C808.362 297.704 808.277 299.192 808.165 300.693C808.141 301.015 808.105 301.302 808.066 301.573C807.279 302.277 806.865 303.098 807.332 304C805.597 307.797 804.129 311.69 802.869 315.706C799.162 327.526 795.392 339.571 797.714 352C798.257 345.16 799.399 338.166 800.764 331.438C800.842 331.052 800.927 330.669 801.015 330.287C801.025 330.247 801.033 330.206 801.042 330.166C801.525 328.106 802.153 326.108 802.917 324.141C802.925 324.119 802.933 324.098 802.941 324.077C803.042 323.818 803.149 323.56 803.255 323.303C803.474 322.77 803.699 322.238 803.937 321.709C804.018 321.528 804.095 321.346 804.17 321.163C805.282 318.437 805.751 315.365 806.748 312.545C806.986 311.904 807.235 311.265 807.496 310.629C807.512 310.592 807.527 310.555 807.543 310.518C808.249 308.807 809.028 307.118 809.853 305.446C810.301 305.11 810.54 304.274 810.927 303.515C811.006 303.365 811.631 302.368 811.817 301.793C812.303 300.854 812.786 299.915 813.275 298.977C813.261 298.983 813.246 298.988 813.231 298.994C813.72 298.093 814.211 297.197 814.698 296.304C814.805 296.108 814.913 295.912 815.021 295.715C815.196 295.402 815.371 295.089 815.545 294.777C817.177 291.856 818.908 288.994 820.705 286.167C821.347 285.158 822.879 283.711 823.173 282.579C823.184 282.536 823.186 282.497 823.193 282.457C827.093 276.979 831.582 271.927 836.967 267.924C836.316 268.628 834.932 271.015 834.567 271.488C833.447 272.935 832.232 274.282 831.013 275.646C828.828 278.089 826.696 280.609 824.801 283.274C821.335 288.148 818.346 293.277 815.519 298.51C815.493 298.54 815.463 298.569 815.438 298.601C814.017 300.352 813.123 302.998 812.101 305.001C816.147 303.127 820.622 301.906 824.774 300.242C828.916 298.583 832.944 296.735 836.834 294.566C842.003 291.682 847.366 288.427 852.25 284.743C857.847 281.271 862.551 276.492 866.703 271.477C871.615 265.543 876.117 259.558 878.901 252.353C880.269 248.813 881.345 245.121 881.983 241.386C882.011 241.224 882.046 241.047 882.085 240.864C882.738 239.574 883.321 238.255 883.811 236.906C884.588 234.766 886.425 232.412 882.98 231.66" fill="#69A1AC"/>
<path fill-rule="evenodd" clip-rule="evenodd" d="M305.008 256.729C303.94 255.572 302.74 254.528 301.331 253.783C300.974 253.595 298.321 252.335 298.148 252.611C297.745 253.255 304.688 256.359 305.008 256.729M317.59 249C317.581 249.049 318.501 250.61 318.752 251.09C319.285 252.111 319.777 253.151 320.24 254.194C319.555 252.353 318.85 250.645 317.59 249M253.245 261.709C252.359 261.994 251.294 260.869 252.443 260.592C253.373 260.37 253.327 260.318 253.745 259.568C254.084 258.96 254.293 258.218 254.591 257.58C255.222 256.226 255.938 254.934 256.817 253.724C258.7 251.13 260.995 248.895 263.569 247.011C268.061 243.725 273.098 240.72 278.441 239.211C286.936 236.811 296.605 236.663 305.113 238.327C310.383 239.357 315.198 241.149 318.697 245.392C320.446 247.512 321.819 249.996 322.419 252.731C322.576 253.446 322.546 254.241 322.743 254.941C323.044 256.018 322.911 255.731 324.17 255.94C325.544 256.169 326.917 256.402 328.29 256.64C331.885 257.262 335.501 257.922 339.004 258.931C340.157 259.263 341.284 259.669 342.386 260.14C343.219 260.496 346.536 261.615 346.939 262.697C347.61 264.498 345.362 263.682 344.663 263.289C344.051 262.946 343.423 262.625 342.786 262.33C341.181 261.588 339.509 261.013 337.799 260.556C335.951 260.062 334.066 259.693 332.187 259.323C330.436 258.979 328.678 258.666 326.917 258.366C325.939 258.2 324.961 258.038 323.982 257.877C323.647 257.821 323.058 257.532 323.102 257.967C321.045 257.57 318.819 257.627 316.723 257.518C314.156 257.384 311.579 257.274 309.003 257.354C307.145 257.412 305.286 257.534 303.437 257.784C302.357 257.93 301.294 258.143 300.235 258.413C299.652 258.562 297.357 258.877 297.04 259.384C297.176 259.166 299.709 259.378 300.032 259.365C301.322 259.317 302.601 259.189 303.886 259.046C306.271 258.779 308.656 258.64 311.048 258.66C311.039 259.08 309.405 259.828 309.006 260.106C308.112 260.731 307.256 261.411 306.456 262.158C305.049 263.473 303.363 265.102 302.39 266.661C302.677 266.201 304.092 265.604 304.595 265.253C305.399 264.691 306.188 264.091 306.934 263.45C307.622 262.858 308.265 262.218 308.897 261.565C309.529 260.912 310.386 259.553 311.217 259.118C311.267 259.091 311.629 259.377 311.834 259.28C312.042 259.182 312.3 258.692 312.353 258.672C313.125 258.374 314.593 258.745 315.406 258.783C317.513 258.88 319.619 259.007 321.724 259.123C322.377 259.159 322.931 259.01 323.178 259.491C323.44 260.005 322.959 261.354 322.822 261.913C322.314 263.989 321.413 265.85 319.993 267.459C317.335 270.472 314.057 272.48 310.353 273.824C296.169 278.97 281.078 281.031 266.898 275.678C261.028 273.461 252.187 269.501 253.245 261.709" fill="#89C5CC"/>
<g opacity="0.6">
<path fill-rule="evenodd" clip-rule="evenodd" d="M902.711 504.152C912.361 569.476 678.337 612.085 476.908 582.349C275.478 552.614 183.072 436.493 279.191 374.62C375.31 312.746 893.061 438.828 902.711 504.152Z" fill="#B28B67"/>
</g>
<rect x="340" y="76" width="159" height="302" rx="8" fill="#F2F2F2"/>
<path fill-rule="evenodd" clip-rule="evenodd" d="M419 359C427.284 359 434 352.284 434 344C434 335.716 427.284 329 419 329C410.716 329 404 335.716 404 344C404 352.284 410.716 359 419 359Z" fill="white"/>
<path fill-rule="evenodd" clip-rule="evenodd" d="M406 96C407.105 96 408 95.1046 408 94C408 92.8954 407.105 92 406 92C404.895 92 404 92.8954 404 94C404 95.1046 404.895 96 406 96Z" fill="white"/>
<rect x="413" y="92" width="21" height="4" rx="2" fill="white"/>
<rect x="354" y="104" width="131" height="54" rx="4" fill="white"/>
<g clip-path="url(#clip0)">
<rect x="393" y="120.2" width="73" height="8.1" rx="3" fill="#DDE3E9"/>
<rect x="393" y="133.7" width="49" height="8.1" rx="3" fill="#DDE3E9"/>
</g>
<path fill-rule="evenodd" clip-rule="evenodd" d="M375 143C381.627 143 387 137.627 387 131C387 124.373 381.627 119 375 119C368.373 119 363 124.373 363 131C363 137.627 368.373 143 375 143Z" fill="#C5CFD6"/>
<rect x="354" y="166" width="131" height="42" rx="4" fill="white"/>
<g clip-path="url(#clip1)">
<rect x="393" y="178.6" width="73" height="6.3" rx="3" fill="#DDE3E9"/>
<rect x="393" y="189.1" width="49" height="6.3" rx="3" fill="#DDE3E9"/>
</g>
<path fill-rule="evenodd" clip-rule="evenodd" d="M375 199C381.627 199 387 193.627 387 187C387 180.373 381.627 175 375 175C368.373 175 363 180.373 363 187C363 193.627 368.373 199 375 199Z" fill="#C5CFD6"/>
<rect x="354" y="216" width="131" height="42" rx="4" fill="white"/>
<g clip-path="url(#clip2)">
<rect x="393" y="228.6" width="73" height="6.3" rx="3" fill="#DDE3E9"/>
<rect x="393" y="239.1" width="49" height="6.3" rx="3" fill="#DDE3E9"/>
</g>
<path fill-rule="evenodd" clip-rule="evenodd" d="M375 249C381.627 249 387 243.627 387 237C387 230.373 381.627 225 375 225C368.373 225 363 230.373 363 237C363 243.627 368.373 249 375 249Z" fill="#AFB9C5"/>
<rect x="354" y="266" width="131" height="42" rx="4" fill="white"/>
<g clip-path="url(#clip3)">
<rect x="393" y="278.6" width="73" height="6.3" rx="3" fill="#DDE3E9"/>
<rect x="393" y="289.1" width="49" height="6.3" rx="3" fill="#DDE3E9"/>
</g>
<path fill-rule="evenodd" clip-rule="evenodd" d="M375 299C381.627 299 387 293.627 387 287C387 280.373 381.627 275 375 275C368.373 275 363 280.373 363 287C363 293.627 368.373 299 375 299Z" fill="#C5CFD6"/>
<path fill-rule="evenodd" clip-rule="evenodd" d="M370.14 320C368.815 320 367.494 320.027 366.171 320.095C365.162 320.148 363.621 319.939 362.768 320.568C361.881 321.221 361.942 322.557 362.081 323.501C362.813 328.493 364.6 332.919 368.339 336.456C374.096 341.901 380.695 344.668 388.504 345.9C393.99 346.766 399.054 345.564 403.092 341.663C406.043 347.139 408.281 353.199 409.404 359.315C409.958 362.333 410.127 365.315 410.03 368.388C409.967 370.356 409.859 372.32 409.648 374.279C409.556 375.13 409.122 376.418 409.455 377.223C409.846 378.167 411.165 378.259 411.757 377.453C412.25 376.783 412.16 375.466 412.261 374.673C412.429 373.355 412.584 372.036 412.695 370.712C412.876 368.569 413.009 366.42 413 364.268C412.977 359.435 411.902 354.583 410.432 349.995C407.612 341.192 403.037 333.369 395.921 327.231C391.545 323.457 386.537 321.929 380.856 321.108C377.318 320.597 373.723 320 370.14 320" fill="#89C5CC"/>
<path fill-rule="evenodd" clip-rule="evenodd" d="M390.571 355C376.272 355 366.642 366.524 362.089 378.502C360.372 383.016 359.97 387.974 359.308 392.714C359.096 394.236 359.175 396.554 358.557 397.909C358.333 398.401 357.819 398.577 358.065 399.247C358.214 399.652 358.505 399.901 358.944 399.981C359.843 400.147 361.115 399.167 361.886 398.781C368.282 395.573 372.484 390.613 375.912 384.545C378.038 380.784 380.194 376.879 381.456 372.75C382.227 370.227 382.676 367.571 382.94 364.954C383.044 363.923 383.144 362.868 383.138 361.832C383.132 360.803 382.653 360.259 382.309 359.364C387.08 357.558 392.466 357.066 397.299 358.937C401.769 360.668 405.482 364.013 407.561 368.216C408.101 369.308 408.518 370.46 408.821 371.636C409.02 372.406 409.029 373.404 409.398 374.1C410.29 375.788 412.168 374.66 411.988 373.089C411.485 368.708 408.979 364.309 405.775 361.263C401.734 357.421 396.258 355 390.571 355" fill="#89C5CC"/>
<rect x="406" y="102" width="159" height="302" rx="8" fill="#FF9B21"/>
<path fill-rule="evenodd" clip-rule="evenodd" d="M485 385C493.284 385 500 378.284 500 370C500 361.716 493.284 355 485 355C476.716 355 470 361.716 470 370C470 378.284 476.716 385 485 385Z" fill="white"/>
<path fill-rule="evenodd" clip-rule="evenodd" d="M472 122C473.105 122 474 121.105 474 120C474 118.895 473.105 118 472 118C470.895 118 470 118.895 470 120C470 121.105 470.895 122 472 122Z" fill="white"/>
<rect x="479" y="118" width="21" height="4" rx="2" fill="white"/>
<rect x="420" y="130" width="131" height="54" rx="4" fill="white"/>
<g clip-path="url(#clip4)">
<rect x="429" y="146.2" width="73" height="8.1" rx="3" fill="#DDE3E9"/>
<rect x="429" y="159.7" width="49" height="8.1" rx="3" fill="#DDE3E9"/>
</g>
<path fill-rule="evenodd" clip-rule="evenodd" d="M537 164C540.866 164 544 160.866 544 157C544 153.134 540.866 150 537 150C533.134 150 530 153.134 530 157C530 160.866 533.134 164 537 164Z" fill="#DDE3E9"/>
<path fill-rule="evenodd" clip-rule="evenodd" d="M537 160C538.657 160 540 158.657 540 157C540 155.343 538.657 154 537 154C535.343 154 534 155.343 534 157C534 158.657 535.343 160 537 160Z" fill="#F2F2F2"/>
<rect x="420" y="192" width="131" height="42" rx="4" fill="white"/>
<g clip-path="url(#clip5)">
<rect x="459" y="204.6" width="73" height="6.3" rx="3" fill="#DDE3E9"/>
<rect x="459" y="215.1" width="49" height="6.3" rx="3" fill="#DDE3E9"/>
</g>
<path fill-rule="evenodd" clip-rule="evenodd" d="M441 225C447.627 225 453 219.627 453 213C453 206.373 447.627 201 441 201C434.373 201 429 206.373 429 213C429 219.627 434.373 225 441 225Z" fill="#C5CFD6"/>
<rect x="420" y="242" width="131" height="42" rx="4" fill="white"/>
<g clip-path="url(#clip6)">
<rect x="429" y="254.6" width="73" height="6.3" rx="3" fill="#DDE3E9"/>
<rect x="429" y="265.1" width="49" height="6.3" rx="3" fill="#AFB9C5"/>
</g>
<path fill-rule="evenodd" clip-rule="evenodd" d="M537 270C540.866 270 544 266.866 544 263C544 259.134 540.866 256 537 256C533.134 256 530 259.134 530 263C530 266.866 533.134 270 537 270Z" fill="#DDE3E9"/>
<path fill-rule="evenodd" clip-rule="evenodd" d="M537 266C538.657 266 540 264.657 540 263C540 261.343 538.657 260 537 260C535.343 260 534 261.343 534 263C534 264.657 535.343 266 537 266Z" fill="#F2F2F2"/>
<rect x="420" y="292" width="131" height="42" rx="4" fill="white"/>
<g clip-path="url(#clip7)">
<rect x="459" y="304.6" width="73" height="6.3" rx="3" fill="#DDE3E9"/>
<rect x="459" y="315.1" width="49" height="6.3" rx="3" fill="#DDE3E9"/>
</g>
<path fill-rule="evenodd" clip-rule="evenodd" d="M441 325C447.627 325 453 319.627 453 313C453 306.373 447.627 301 441 301C434.373 301 429 306.373 429 313C429 319.627 434.373 325 441 325Z" fill="#C5CFD6"/>
<rect x="472" y="127" width="335" height="346" rx="8" fill="#F2F2F2"/>
<rect x="721" y="170" width="70" height="81" rx="8" fill="white"/>
<path fill-rule="evenodd" clip-rule="evenodd" d="M756 217C764.837 217 772 209.837 772 201C772 192.163 764.837 185 756 185C747.163 185 740 192.163 740 201C740 209.837 747.163 217 756 217Z" fill="#DDE3E9"/>
<rect x="731" y="221" width="50" height="6" rx="3" fill="#DDE3E9"/>
<rect x="739" y="231" width="34" height="6" rx="3" fill="#DDE3E9"/>
<path d="M472 135C472 130.582 475.582 127 480 127H799C803.418 127 807 130.582 807 135V154H472V135Z" fill="#FF9B21"/>
<path fill-rule="evenodd" clip-rule="evenodd" d="M485 145C487.209 145 489 143.209 489 141C489 138.791 487.209 137 485 137C482.791 137 481 138.791 481 141C481 143.209 482.791 145 485 145Z" fill="#F2F2F2"/>
<path fill-rule="evenodd" clip-rule="evenodd" d="M497 145C499.209 145 501 143.209 501 141C501 138.791 499.209 137 497 137C494.791 137 493 138.791 493 141C493 143.209 494.791 145 497 145Z" fill="#F2F2F2"/>
<path fill-rule="evenodd" clip-rule="evenodd" d="M509 145C511.209 145 513 143.209 513 141C513 138.791 511.209 137 509 137C506.791 137 505 138.791 505 141C505 143.209 506.791 145 509 145Z" fill="#F2F2F2"/>
<rect x="721" y="259" width="70" height="194" rx="8" fill="white"/>
<rect x="739" y="277" width="34" height="26" rx="4" fill="#DDE3E9"/>
<rect x="739" y="311" width="34" height="25" rx="4" fill="#AFB9C5"/>
<rect x="739" y="344" width="34" height="25" rx="4" fill="#DDE3E9"/>
<rect x="739" y="410" width="34" height="25" rx="4" fill="#DDE3E9"/>
<rect x="739" y="377" width="34" height="25" rx="4" fill="#C5CFD6"/>
<rect x="488" y="171" width="225" height="47" rx="4" fill="white"/>
<g clip-path="url(#clip8)">
<rect x="497" y="185.1" width="167" height="7.05" rx="3" fill="#DDE3E9"/>
<rect x="497" y="196.85" width="112.096" height="7.05" rx="3" fill="#DDE3E9"/>
</g>
<path fill-rule="evenodd" clip-rule="evenodd" d="M688.954 201.5C692.82 201.5 695.954 198.366 695.954 194.5C695.954 190.634 692.82 187.5 688.954 187.5C685.088 187.5 681.954 190.634 681.954 194.5C681.954 198.366 685.088 201.5 688.954 201.5Z" fill="#DDE3E9"/>
<path fill-rule="evenodd" clip-rule="evenodd" d="M688.954 197.5C690.611 197.5 691.954 196.157 691.954 194.5C691.954 192.843 690.611 191.5 688.954 191.5C687.297 191.5 685.954 192.843 685.954 194.5C685.954 196.157 687.297 197.5 688.954 197.5Z" fill="#F2F2F2"/>
<rect x="488" y="226" width="225" height="39" rx="4" fill="white"/>
<g clip-path="url(#clip9)">
<rect x="497" y="237.7" width="167" height="5.85" rx="2.925" fill="#DDE3E9"/>
<rect x="497" y="247.45" width="112.096" height="5.85" rx="2.925" fill="#DDE3E9"/>
</g>
<path fill-rule="evenodd" clip-rule="evenodd" d="M688.954 252.5C692.82 252.5 695.954 249.366 695.954 245.5C695.954 241.634 692.82 238.5 688.954 238.5C685.088 238.5 681.954 241.634 681.954 245.5C681.954 249.366 685.088 252.5 688.954 252.5Z" fill="#DDE3E9"/>
<path fill-rule="evenodd" clip-rule="evenodd" d="M688.954 248.5C690.611 248.5 691.954 247.157 691.954 245.5C691.954 243.843 690.611 242.5 688.954 242.5C687.297 242.5 685.954 243.843 685.954 245.5C685.954 247.157 687.297 248.5 688.954 248.5Z" fill="#F2F2F2"/>
<rect x="488" y="273" width="225" height="39" rx="4" fill="white"/>
<g clip-path="url(#clip10)">
<rect x="497" y="284.7" width="167" height="5.85" rx="2.925" fill="#DDE3E9"/>
<rect x="497" y="294.45" width="112.096" height="5.85" rx="2.925" fill="#DDE3E9"/>
</g>
<path fill-rule="evenodd" clip-rule="evenodd" d="M688.954 299.5C692.82 299.5 695.954 296.366 695.954 292.5C695.954 288.634 692.82 285.5 688.954 285.5C685.088 285.5 681.954 288.634 681.954 292.5C681.954 296.366 685.088 299.5 688.954 299.5Z" fill="#DDE3E9"/>
<path fill-rule="evenodd" clip-rule="evenodd" d="M688.954 295.5C690.611 295.5 691.954 294.157 691.954 292.5C691.954 290.843 690.611 289.5 688.954 289.5C687.297 289.5 685.954 290.843 685.954 292.5C685.954 294.157 687.297 295.5 688.954 295.5Z" fill="#AFB9C5"/>
<rect x="488" y="414" width="225" height="39" rx="4" fill="white"/>
<g clip-path="url(#clip11)">
<rect x="497" y="425.7" width="167" height="5.85" rx="2.925" fill="#DDE3E9"/>
<rect x="497" y="435.45" width="112.096" height="5.85" rx="2.925" fill="#DDE3E9"/>
</g>
<path fill-rule="evenodd" clip-rule="evenodd" d="M688.954 440.5C692.82 440.5 695.954 437.366 695.954 433.5C695.954 429.634 692.82 426.5 688.954 426.5C685.088 426.5 681.954 429.634 681.954 433.5C681.954 437.366 685.088 440.5 688.954 440.5Z" fill="#DDE3E9"/>
<path fill-rule="evenodd" clip-rule="evenodd" d="M688.954 436.5C690.611 436.5 691.954 435.157 691.954 433.5C691.954 431.843 690.611 430.5 688.954 430.5C687.297 430.5 685.954 431.843 685.954 433.5C685.954 435.157 687.297 436.5 688.954 436.5Z" fill="#F2F2F2"/>
<rect x="488" y="367" width="225" height="39" rx="4" fill="white"/>
<g clip-path="url(#clip12)">
<rect x="497" y="378.7" width="167" height="5.85" rx="2.925" fill="#DDE3E9"/>
<rect x="497" y="388.45" width="112.096" height="5.85" rx="2.925" fill="#DDE3E9"/>
</g>
<path fill-rule="evenodd" clip-rule="evenodd" d="M688.954 393.5C692.82 393.5 695.954 390.366 695.954 386.5C695.954 382.634 692.82 379.5 688.954 379.5C685.088 379.5 681.954 382.634 681.954 386.5C681.954 390.366 685.088 393.5 688.954 393.5Z" fill="#DDE3E9"/>
<path fill-rule="evenodd" clip-rule="evenodd" d="M688.954 389.5C690.611 389.5 691.954 388.157 691.954 386.5C691.954 384.843 690.611 383.5 688.954 383.5C687.297 383.5 685.954 384.843 685.954 386.5C685.954 388.157 687.297 389.5 688.954 389.5Z" fill="#F2F2F2"/>
<rect x="488" y="320" width="225" height="39" rx="4" fill="white"/>
<g clip-path="url(#clip13)">
<rect x="497" y="331.7" width="167" height="5.85" rx="2.925" fill="#DDE3E9"/>
<rect x="497" y="341.45" width="112.096" height="5.85" rx="2.925" fill="#DDE3E9"/>
</g>
<path fill-rule="evenodd" clip-rule="evenodd" d="M688.954 346.5C692.82 346.5 695.954 343.366 695.954 339.5C695.954 335.634 692.82 332.5 688.954 332.5C685.088 332.5 681.954 335.634 681.954 339.5C681.954 343.366 685.088 346.5 688.954 346.5Z" fill="#DDE3E9"/>
<path fill-rule="evenodd" clip-rule="evenodd" d="M688.954 342.5C690.611 342.5 691.954 341.157 691.954 339.5C691.954 337.843 690.611 336.5 688.954 336.5C687.297 336.5 685.954 337.843 685.954 339.5C685.954 341.157 687.297 342.5 688.954 342.5Z" fill="#F2F2F2"/>
<path fill-rule="evenodd" clip-rule="evenodd" d="M889.986 297.376C886.041 294.701 880.796 294 876.076 294C857.64 294 840.311 300.84 825.341 311.032C817.138 316.616 809.8 323.728 803.322 331.132C799.582 335.407 796.248 340.03 793.887 345.173C792.294 348.644 791.201 352.261 790.46 355.991C789.557 360.537 788.839 365.175 788.515 369.797C788.387 371.617 787.33 381.274 790.356 381.438C790.338 381.676 790.334 381.903 790.353 382.106C783.782 392.38 779.723 404.42 775.958 415.835C772.683 425.769 769.764 435.786 767.87 446.063C765.375 459.592 763.737 473.326 762.958 487.05C762.791 489.999 762.676 492.95 762.577 495.903C762.493 498.422 762.408 500.941 762.325 503.461C762.233 506.284 761.736 509.534 762.185 512.34C762.576 514.784 764.691 514.414 764.785 511.982C764.898 509.045 764.879 506.102 765.008 503.163C765.179 499.262 765.355 495.361 765.546 491.461C766.875 464.369 771.86 437.675 781.061 412.084C784.785 401.728 789.051 391.925 794.535 382.345C799.356 373.922 805.156 365.767 811.084 358.173C816.845 350.792 822.836 343.583 829.895 337.33C835.624 332.256 841.926 327.835 848.404 323.722C856.631 318.498 864.843 313.401 873.755 309.391C878.388 307.307 883.108 305.441 887.777 303.44C888.617 303.081 889.517 302.732 890.325 302.315C893.02 300.925 892.133 298.832 889.986 297.376" fill="#C1DEE2"/>
<path fill-rule="evenodd" clip-rule="evenodd" d="M815.818 392C823.295 392 829.949 392.972 836.838 395.943C842.785 398.508 848.205 401.903 853.467 405.599C860.868 410.798 866.698 416.848 870.779 424.865C873.217 429.654 875.006 436.431 873.368 441.655C871.44 447.807 866.144 452.939 859.169 451.855C854.856 451.185 850.903 448.33 847.625 445.643C843.703 442.428 840.564 438.563 837.972 434.27C833.744 427.267 831.26 419.351 827.668 412.033C825.964 408.56 824.317 405.063 822.275 401.762C821.265 400.128 820.189 398.509 818.656 397.294C817.836 396.644 814.378 395.52 815.7 394.061C796.31 394.315 779.132 409.207 775.409 427.641C775.063 429.359 774.792 431.091 774.505 432.82C774.325 433.911 774.398 437.937 773.422 438.634C771.27 440.172 772.174 435.499 772.267 434.826C772.506 433.087 772.76 431.35 773.027 429.615C774.481 420.181 778.681 411.411 785.685 404.683C793.694 396.99 804.501 392 815.818 392" fill="#89C5CC"/>
<path fill-rule="evenodd" clip-rule="evenodd" d="M276.938 368.736C295.604 400.052 317.345 430.374 330.401 464.613C329.875 460.577 329.317 456.545 328.692 452.52C325.38 431.179 321.262 409.994 316.936 388.835C314.733 378.062 312.402 367.327 310.012 356.594C308.727 350.829 307.457 345.061 306.145 339.302C305.827 337.906 305.554 335.469 305.157 333C317.845 374.637 330.081 416.305 339.031 458.942C340.205 464.538 341.205 470.124 342.024 475.7C342.304 474.428 342.58 473.156 342.881 471.887C346.503 456.68 351.935 441.594 358.403 427.374C361.495 420.575 365.046 413.924 369.228 407.726C371.836 403.863 377.986 399.271 380.364 395.314C367.355 419.176 362.657 449.032 355.145 474.973C353.312 481.304 351.467 487.624 349.659 493.955C360.987 471.237 378.563 452.571 403 444.483C373.42 464.027 355.678 498.254 343.722 533.26C343.683 533.675 343.636 534.09 343.595 534.506C347.114 527.829 351.545 521.789 357.551 517.56C370.407 508.504 384.667 511.142 397.137 518.91C387.35 512.689 369.663 518.354 361.428 524.677C355.533 529.203 350.495 535.275 346.12 541.2C345.072 542.62 343.641 544.277 342.13 546.044C340.012 559.795 336.56 573.452 331.672 587C332.479 583.111 331.896 576.892 332.12 573.993C332.144 573.679 332.164 573.365 332.188 573.053C331.445 576.019 330.727 578.951 330.036 581.837C331.41 576.331 332.156 570.583 332.739 564.776C332.889 562.281 333.036 559.785 333.19 557.29C333.141 552.553 332.946 547.799 332.616 543.036C331.447 538.408 330.137 534.042 329.056 530.411C325.159 517.31 319.444 504.76 312.411 493.051C305.994 482.366 298.312 472.688 289.445 463.935C284.664 459.217 279.661 454.725 274.729 450.17C272.945 448.523 269.757 444.474 267 442.363C287.08 453.434 307.749 465.41 322.398 483.248C320.68 476.653 318.815 470.151 316.842 463.78C306.831 431.454 294.191 397.953 276.938 368.736Z" fill="#DDE3E9"/>
<path fill-rule="evenodd" clip-rule="evenodd" d="M297 546C297 581.899 299.843 611 338 611C376.157 611 379 581.899 379 546" fill="#C5CFD6"/>
<rect x="722" y="84" width="6" height="25" rx="3" fill="#DDE3E9"/>
<rect x="736" y="68" width="6" height="41" rx="3" fill="#DDE3E9"/>
<rect x="750" y="60" width="6" height="49" rx="3" fill="#DDE3E9"/>
<rect x="764" y="68" width="6" height="41" rx="3" fill="#DDE3E9"/>
<rect x="778" y="52" width="6" height="57" rx="3" fill="#C5CFD6"/>
<path fill-rule="evenodd" clip-rule="evenodd" d="M230 358.256C230 347.117 239.002 338 250 338V358.256L236.332 373C232.444 369.395 230 364.107 230 358.256Z" fill="#F2F2F2"/>
<path fill-rule="evenodd" clip-rule="evenodd" d="M249.471 358H269.668C269.668 363.221 267.538 368.113 264.171 371.668C260.468 375.556 255.195 378 249.471 378C244.198 378 239.372 375.891 235.668 372.557L249.471 358Z" fill="#AFB9C5"/>
<path fill-rule="evenodd" clip-rule="evenodd" d="M270 358C270 347.002 260.998 338 250 338V358H270ZM240 338L248 356L230 348C231.78 343.334 235.777 339.78 240 338Z" fill="#C5CFD6"/>
<path fill-rule="evenodd" clip-rule="evenodd" d="M880.766 367.179C878.845 369.219 876.123 370.5 873.095 370.5C867.278 370.5 862.562 365.799 862.562 360C862.562 354.201 867.278 349.5 873.095 349.5V330C856.546 330 843 343.503 843 360C843 376.497 856.546 390 873.095 390C881.788 390 889.645 386.334 895 380.502L880.766 367.179Z" fill="#F2F2F2"/>
<path fill-rule="evenodd" clip-rule="evenodd" d="M873 330V349.5C878.799 349.5 883.5 354.201 883.5 360H903C903 343.503 889.497 330 873 330Z" fill="#AFB9C5"/>
<path fill-rule="evenodd" clip-rule="evenodd" d="M883.097 360C883.097 363.407 881.492 366.435 879 368.391L891.262 384C898.399 378.412 903 369.749 903 360H883.097Z" fill="#C5CFD6"/>
<path fill-rule="evenodd" clip-rule="evenodd" d="M690.051 91.5039C688.573 93.0679 686.479 94.05 684.15 94.05C679.675 94.05 676.048 90.4459 676.048 86C676.048 81.5541 679.675 77.95 684.15 77.95V63C671.42 63 661 73.3523 661 86C661 98.6477 671.42 109 684.15 109C690.837 109 696.88 106.189 701 101.718L690.051 91.5039Z" fill="#F2F2F2"/>
<path fill-rule="evenodd" clip-rule="evenodd" d="M684 63V77.95C688.446 77.95 692.05 81.5541 692.05 86H707C707 73.3523 696.648 63 684 63Z" fill="#AFB9C5"/>
<path fill-rule="evenodd" clip-rule="evenodd" d="M692.073 86C692.073 88.5552 690.869 90.8266 689 92.2931L698.196 104C703.55 99.8088 707 93.312 707 86H692.073Z" fill="#C5CFD6"/>
<path fill-rule="evenodd" clip-rule="evenodd" d="M326.007 108.986C326.003 108.996 325.999 109.006 325.993 109.018C325.999 109.008 326.007 108.968 326.007 108.986" fill="#C5CFD6"/>
<path fill-rule="evenodd" clip-rule="evenodd" d="M325.998 109.001C325.998 109.003 325.996 109.007 325.996 109.011C325.996 109.001 326.014 108.971 325.998 109.001" fill="#C5CFD6"/>
<path fill-rule="evenodd" clip-rule="evenodd" d="M326.067 108.832C326.053 108.872 326.035 108.91 326.019 108.95C326.027 108.93 326.035 108.914 326.043 108.894C325.835 109.414 325.967 109.076 326.067 108.832" fill="#C5CFD6"/>
<path fill-rule="evenodd" clip-rule="evenodd" d="M326.022 108.953C326.014 108.971 326.006 108.991 325.998 109.009C325.94 109.121 326.022 108.953 326.022 108.953" fill="#C5CFD6"/>
<path fill-rule="evenodd" clip-rule="evenodd" d="M325.999 109.002C325.999 109 325.999 109 326.001 108.998C325.999 109 325.999 109 325.999 109.002" fill="#C5CFD6"/>
<path fill-rule="evenodd" clip-rule="evenodd" d="M325.99 109.016C325.978 109.04 326.046 108.924 325.99 109.016Z" fill="#C5CFD6"/>
<path fill-rule="evenodd" clip-rule="evenodd" d="M325.998 109.002L326.002 108.998C326 109 326 109.002 325.998 109.002" fill="#C5CFD6"/>
<rect x="278" y="57" width="95" height="63" rx="4" fill="#DDE3E9"/>
<path fill-rule="evenodd" clip-rule="evenodd" d="M314 75L286 120H342L314 75Z" fill="#AFB9C5"/>
<path fill-rule="evenodd" clip-rule="evenodd" d="M341.5 87L317 120H366L341.5 87Z" fill="#C5CFD6"/>
<path fill-rule="evenodd" clip-rule="evenodd" d="M352 87C356.971 87 361 82.9706 361 78C361 73.0294 356.971 69 352 69C347.029 69 343 73.0294 343 78C343 82.9706 347.029 87 352 87Z" fill="white"/>
<path fill-rule="evenodd" clip-rule="evenodd" d="M802.993 535.986C802.997 535.996 803.001 536.006 803.007 536.018C803.001 536.008 802.993 535.968 802.993 535.986" fill="#C5CFD6"/>
<path fill-rule="evenodd" clip-rule="evenodd" d="M803.002 536.001C803.002 536.003 803.004 536.007 803.004 536.011C803.004 536.001 802.986 535.971 803.002 536.001" fill="#C5CFD6"/>
<path fill-rule="evenodd" clip-rule="evenodd" d="M802.933 535.832C802.947 535.872 802.965 535.91 802.981 535.95C802.973 535.93 802.965 535.914 802.957 535.894C803.165 536.414 803.033 536.076 802.933 535.832" fill="#C5CFD6"/>
<path fill-rule="evenodd" clip-rule="evenodd" d="M802.978 535.953C802.986 535.971 802.994 535.991 803.002 536.009C803.06 536.121 802.978 535.953 802.978 535.953" fill="#C5CFD6"/>
<path fill-rule="evenodd" clip-rule="evenodd" d="M803.001 536.002C803.001 536 803.001 536 802.999 535.998C803.001 536 803.001 536 803.001 536.002" fill="#C5CFD6"/>
<path fill-rule="evenodd" clip-rule="evenodd" d="M803.01 536.016C803.022 536.04 802.954 535.924 803.01 536.016Z" fill="#C5CFD6"/>
<path fill-rule="evenodd" clip-rule="evenodd" d="M803.002 536.002L802.998 535.998C803 536 803 536.002 803.002 536.002" fill="#C5CFD6"/>
<rect width="142" height="94" rx="4" transform="matrix(-1 0 0 1 874 459)" fill="#DDE3E9"/>
<path fill-rule="evenodd" clip-rule="evenodd" d="M821.274 486L862.329 553H780.219L821.274 486Z" fill="#AFB9C5"/>
<path fill-rule="evenodd" clip-rule="evenodd" d="M778.944 503.946L815.239 553H742.649L778.944 503.946Z" fill="#C5CFD6"/>
<path fill-rule="evenodd" clip-rule="evenodd" d="M763.5 504C756.044 504 750 497.956 750 490.5C750 483.044 756.044 477 763.5 477C770.956 477 777 483.044 777 490.5C777 497.956 770.956 504 763.5 504Z" fill="white"/>
<path fill-rule="evenodd" clip-rule="evenodd" d="M155.935 375.244C162.411 379.147 168.774 381.033 171.76 380.263C179.25 378.333 179.938 350.935 174.143 340.134C168.349 329.333 138.558 324.625 137.057 346.025C136.536 353.453 139.654 360.081 144.262 365.49L136 404H160L155.935 375.244Z" fill="#B28B67"/>
<path fill-rule="evenodd" clip-rule="evenodd" d="M142.418 370.308C139.406 356.906 130.825 347.771 132.135 341.782C133.446 335.792 139.121 334.332 139.121 334.332C139.121 334.332 142.057 322.457 158.056 324.23C174.055 326.004 183.819 332.648 179.602 347.268C175.726 347.268 171.046 345.866 164.576 348.268C161.496 349.411 160.17 355.358 160.17 355.358H157.246C157.246 355.358 152.989 348.301 148.851 350.171C144.713 352.042 146.97 359.259 146.97 359.259L145.529 370.308H142.418Z" fill="#191847"/>
<path fill-rule="evenodd" clip-rule="evenodd" d="M69 529C60.1634 529 53 536.163 53 545V637C53 645.837 60.1634 653 69 653H184C192.837 653 200 645.837 200 637V545C200 536.163 192.837 529 184 529H69ZM85 557C82.7909 557 81 558.791 81 561V621C81 623.209 82.7909 625 85 625H168C170.209 625 172 623.209 172 621V561C172 558.791 170.209 557 168 557H85Z" fill="#C5CFD6"/>
<path fill-rule="evenodd" clip-rule="evenodd" d="M299.159 648C279.443 623.924 266.103 606.075 259.138 594.454C247.213 574.555 237.453 556.848 234.373 550.084C227.028 533.955 251.282 526.403 256.771 533.926C265.079 545.312 282.822 581.143 310 641.417L299.159 648Z" fill="#B28B67"/>
<path fill-rule="evenodd" clip-rule="evenodd" d="M258.758 641L222.065 548.637C214.217 531.8 252.116 520.732 257.883 528.568C270.977 546.357 302.099 616.534 306 621.834L258.758 641Z" fill="#2F3676"/>
<path fill-rule="evenodd" clip-rule="evenodd" d="M161.033 622.477C168.181 612.051 194.179 576.974 208.339 562.461C212.408 558.291 216.379 554.288 220.134 550.557C231.296 539.47 253.524 558.106 242.382 568.205C214.635 593.355 174.151 627.307 170.769 630.334C166.028 634.577 156.541 629.029 161.033 622.477Z" fill="#B28B67"/>
<path fill-rule="evenodd" clip-rule="evenodd" d="M165.664 618.185C164.971 617.241 163.63 617.017 162.734 617.771C161.099 619.146 158.748 621.264 157.899 622.734C156.547 625.076 154.733 630.021 154.733 630.021C157.45 631.59 203.578 658.222 203.578 658.222C203.578 658.222 209.116 653.027 205.304 650.157C201.492 647.286 199.012 645.315 199.012 645.315L182.152 622.087C181.821 621.631 181.179 621.538 180.733 621.882L177.23 624.579C177.23 624.579 172.409 624.159 170.035 622.788C168.59 621.953 166.824 619.767 165.664 618.185Z" fill="#E4E4E4"/>
<path fill-rule="evenodd" clip-rule="evenodd" d="M293.45 643.284C292.378 642.813 291.104 643.29 290.705 644.391C289.977 646.398 289 649.409 289 651.106C289 653.811 289.901 659 289.901 659C293.039 659 346.303 659 346.303 659C346.303 659 348.502 651.732 343.765 651.152C339.028 650.573 335.895 650.106 335.895 650.106L309.68 638.419C309.165 638.189 308.563 638.43 308.348 638.951L306.663 643.039C306.663 643.039 302.278 645.085 299.537 645.085C297.868 645.085 295.246 644.074 293.45 643.284Z" fill="#E4E4E4"/>
<path fill-rule="evenodd" clip-rule="evenodd" d="M208.862 553.25C208.862 553.25 163.117 545.798 147.581 543.058C118.057 537.852 109.448 521.965 114.538 487.302L168.934 487.302C179.732 490.42 259.168 525.872 259.168 525.872C268.696 530.602 266.921 544.547 265.18 549.142C265.073 549.423 216.992 631.713 216.992 631.713L172.494 603.365L208.946 556.59C208.946 556.59 210.39 553.682 208.862 553.25Z" fill="#5C63AB"/>
<path fill-rule="evenodd" clip-rule="evenodd" d="M244.679 497.635L212.781 474.211L205.73 491.642L237.317 504.741C246.251 515.235 251.246 519.61 252.304 517.865C253.195 516.394 252.498 515.017 251.857 513.749C251.356 512.76 250.89 511.838 251.233 510.989C252.018 509.049 258.019 509.254 263.705 509.691C269.392 510.128 267.735 507.598 266.364 506.349C260.559 502.874 253.331 499.97 244.679 497.635ZM77.398 538.908C80.3284 532.963 90.308 475.02 90.308 475.02L111.205 475.102C111.205 475.102 91.8506 537.583 90.308 541.406C88.304 546.372 91.708 553.587 94.0161 558.48C94.3732 559.237 94.7041 559.938 94.9846 560.567C91.7819 562 90.2435 560.268 88.6215 558.442C86.7896 556.379 84.8511 554.197 80.2879 556.319C78.525 557.14 76.8567 558.109 75.2268 559.057C69.5968 562.329 64.4248 565.336 57.3891 560.994C56.2736 560.306 55.0513 557.715 58.0046 555.69C65.3624 550.645 75.9653 541.815 77.398 538.908Z" fill="#B28B67"/>
<path fill-rule="evenodd" clip-rule="evenodd" d="M149.695 387.332L158.342 385.849C190.425 413.564 203.603 466.809 242.93 495.015L233.464 506.748C165.24 498.3 148.33 433.355 149.695 387.332Z" fill="#E87613"/>
<path fill-rule="evenodd" clip-rule="evenodd" d="M112 496C112 496 164.008 496 188.511 496C192.008 496 191.349 490.952 190.843 488.404C185.011 459.004 162.241 427.312 162.241 385.461L140.172 382C121.917 411.358 115.605 447.505 112 496Z" fill="#DDE3E9"/>
<path fill-rule="evenodd" clip-rule="evenodd" d="M103.397 517C99.9582 525.259 96.5863 532.465 93.409 538H77C75.2346 480.919 96.8454 436.996 114.932 410.513C110.916 410.226 107.291 408.545 105 404.411C96.9335 389.856 99.8467 381.842 108.467 379.208C113.207 377.76 117.666 378.748 123.002 379.932C127.369 380.9 132.325 381.999 138.504 382C138.506 382 138.508 382 138.51 382C139.109 382 139.654 382.04 140.149 382.117L147.472 382.535C147.472 382.535 177.205 483.305 163.872 517H103.397Z" fill="#FF9B21"/>
<path fill-rule="evenodd" clip-rule="evenodd" d="M103.397 517C107.909 506.164 112.535 493.516 116.987 480.454C118.645 494.839 121.405 509.286 126 517H103.397Z" fill="black" fill-opacity="0.1"/>
<path fill-rule="evenodd" clip-rule="evenodd" d="M890.065 302.244C883.589 306.147 877.226 308.033 874.24 307.263C866.75 305.333 866.062 277.935 871.857 267.134C877.651 256.333 907.442 251.625 908.943 273.025C909.464 280.453 906.346 287.081 901.738 292.49L910 331H886L890.065 302.244Z" fill="#B28B67"/>
<path fill-rule="evenodd" clip-rule="evenodd" d="M888.865 275.389C886.789 272.298 884.796 269.94 882.203 268.571C871.652 268.738 870.417 266.846 870.417 260.471C872.121 259.252 878.134 257.198 884.868 256.621C888.303 255.638 892.373 255.822 896.293 257.462C901.132 258.835 905.23 261.792 907.04 267.328C913.588 278.629 908.618 290.393 901.92 294.411C900.137 292.299 898.581 290.252 897.192 288.292C898.308 287.203 899 285.682 899 284C899 280.686 896.314 278 893 278C892.756 278 892.516 278.015 892.28 278.043C892.131 282.186 891.517 296.203 889.906 301.071C888.005 306.812 876.916 308.221 873.049 308.221C869.708 308.221 869.822 305.058 869.904 302.791C869.916 302.464 869.927 302.156 869.927 301.879C869.927 301.3 870.68 301.302 871.531 301.303C872.636 301.306 873.906 301.308 873.906 300.04C873.906 298.658 871.996 297.598 870.287 296.649C869.221 296.057 868.232 295.509 867.835 294.952C866.581 293.198 866.159 290.831 868.05 290.831C869.084 290.831 870.503 291.427 872.209 292.144C874.785 293.226 878.017 294.585 881.574 294.585C887.45 294.585 888.847 275.626 888.865 275.389Z" fill="#191847"/>
<path fill-rule="evenodd" clip-rule="evenodd" d="M918 414L881.369 540.227L864.14 635H846.847L864.109 414H918Z" fill="#997659"/>
<path fill-rule="evenodd" clip-rule="evenodd" d="M934.462 414C931.906 479.574 932.914 515.34 933.486 521.298C934.058 527.256 937.306 567.156 959.436 637H941.45C912.142 569.997 901.911 530.096 898.55 521.298C895.188 512.5 885.261 476.734 870.767 414H934.462Z" fill="#B28B67"/>
<path fill-rule="evenodd" clip-rule="evenodd" d="M918.786 414C909.258 457.435 892.778 526.768 869.347 622H844.054C842.186 524.254 850.133 459.92 863.895 414H918.786Z" fill="#69A1AC"/>
<path fill-rule="evenodd" clip-rule="evenodd" d="M934.59 414C932.087 479.574 938.574 544.177 958.669 623.021H931.683C902.321 557.018 881.277 492.734 866.894 414H934.59Z" fill="#89C5CC"/>
<path fill-rule="evenodd" clip-rule="evenodd" d="M962 650L961.085 635.249C961.045 634.609 960.423 634.171 959.795 634.304C951.128 636.146 939.174 632 939.174 632C927.143 640.522 909.799 644.433 903.692 645.604C902.51 645.831 901.752 647.023 902.08 648.18L903.447 653H939.174H960.015L962 650Z" fill="#191847"/>
<path fill-rule="evenodd" clip-rule="evenodd" d="M868 650L867.085 635.249C867.045 634.609 866.423 634.171 865.795 634.304C857.128 636.146 845.174 632 845.174 632C833.143 640.522 815.799 644.433 809.692 645.604C808.51 645.831 807.752 647.023 808.08 648.18L809.447 653H845.174H866.015L868 650Z" fill="#191847"/>
<path fill-rule="evenodd" clip-rule="evenodd" d="M794.64 299.962L832.544 311.341L822.866 327.463L793.395 310.118C779.638 309.299 773.138 307.942 773.895 306.048C774.534 304.451 776.053 304.179 777.452 303.928C778.542 303.733 779.559 303.55 780.031 302.765C781.108 300.971 777.333 296.301 773.562 292.023C769.79 287.745 772.808 287.545 774.631 287.889C780.899 290.433 787.569 294.458 794.64 299.962ZM803.995 401.592L835.893 378.168L842.945 395.599L811.357 408.698C802.423 419.192 797.428 423.566 796.371 421.822C795.479 420.351 796.176 418.974 796.818 417.705C797.318 416.717 797.785 415.795 797.441 414.946C796.656 413.006 790.655 413.21 784.969 413.648C779.283 414.085 780.94 411.555 782.311 410.305C788.115 406.831 795.343 403.926 803.995 401.592Z" fill="#B28B67"/>
<path fill-rule="evenodd" clip-rule="evenodd" d="M885.439 315.087C868.069 347.476 842.95 372.305 806.534 398.116L820.323 413.663C860.982 398.553 882.441 389.436 892.979 358.835C895.624 351.154 897.472 326.671 899.058 313.789L885.439 315.087Z" fill="#2026A2"/>
<path fill-rule="evenodd" clip-rule="evenodd" d="M934 423H857C857 423 883.163 343.208 883.73 313.472C883.749 312.461 885.616 310.68 886.441 310.913C895.5 313.472 905.828 309 905.828 309C924.083 338.358 930.395 374.505 934 423Z" fill="#F2F2F2"/>
<path fill-rule="evenodd" clip-rule="evenodd" d="M886.514 353.791C874.488 405.377 875.042 447.606 901.593 447.606H942.649C949.17 403.784 932.032 343.024 916.144 312.377C915.537 311.206 914.246 309 911.203 309H899.273C899.268 309.016 899.263 309.032 899.257 309.047C895.668 309.077 891.714 309.208 887.433 309.35C865.392 310.082 834.659 311.102 800.077 300L796 320.373C827.213 340.448 858.819 355.999 886.514 353.791Z" fill="#1F28CF"/>
<defs>
<clipPath id="clip0">
<rect width="73" height="21.6" fill="white" transform="translate(393 120.2)"/>
</clipPath>
<clipPath id="clip1">
<rect width="73" height="16.8" fill="white" transform="translate(393 178.6)"/>
</clipPath>
<clipPath id="clip2">
<rect width="73" height="16.8" fill="white" transform="translate(393 228.6)"/>
</clipPath>
<clipPath id="clip3">
<rect width="73" height="16.8" fill="white" transform="translate(393 278.6)"/>
</clipPath>
<clipPath id="clip4">
<rect width="73" height="21.6" fill="white" transform="translate(429 146.2)"/>
</clipPath>
<clipPath id="clip5">
<rect width="73" height="16.8" fill="white" transform="translate(459 204.6)"/>
</clipPath>
<clipPath id="clip6">
<rect width="73" height="16.8" fill="white" transform="translate(429 254.6)"/>
</clipPath>
<clipPath id="clip7">
<rect width="73" height="16.8" fill="white" transform="translate(459 304.6)"/>
</clipPath>
<clipPath id="clip8">
<rect width="167" height="18.8" fill="white" transform="translate(497 185.1)"/>
</clipPath>
<clipPath id="clip9">
<rect width="167" height="15.6" fill="white" transform="translate(497 237.7)"/>
</clipPath>
<clipPath id="clip10">
<rect width="167" height="15.6" fill="white" transform="translate(497 284.7)"/>
</clipPath>
<clipPath id="clip11">
<rect width="167" height="15.6" fill="white" transform="translate(497 425.7)"/>
</clipPath>
<clipPath id="clip12">
<rect width="167" height="15.6" fill="white" transform="translate(497 378.7)"/>
</clipPath>
<clipPath id="clip13">
<rect width="167" height="15.6" fill="white" transform="translate(497 331.7)"/>
</clipPath>
</defs>
</svg>
